<?xml version="1.0" encoding="utf-8"?>
<!-- Generator: Adobe Illustrator 28.3.0, SVG Export Plug-In . SVG Version: 6.00 Build 0)  -->
<svg version="1.1" id="Layer_1" xmlns="http://www.w3.org/2000/svg" xmlns:xlink="http://www.w3.org/1999/xlink" x="0px" y="0px"
	 viewBox="0 0 841.9 841.9" style="enable-background:new 0 0 841.9 841.9;" xml:space="preserve">
<style type="text/css">
	.st10{fill:#D486FE;}
	.st11{clip-path:url(#SVGID_00000165932758343823717760000000199046583544836025_);fill:#1D1D1B;}
	.st12{fill:#FFF369;}
	.st13{fill:#A3984B;}
	.st14{fill:#1D1D1B;}
</style>
<rect x="0" y="0" class="st10" width="842" height="842"/>
<g>
	<g>
		<defs>
			<rect id="SVGID_1_" x="277.8" y="116" width="286.4" height="609"/>
		</defs>
		<clipPath id="SVGID_00000074430190730084355960000015133354805275683477_">
			<use xlink:href="#SVGID_1_"  style="overflow:visible;"/>
		</clipPath>
		<path style="clip-path:url(#SVGID_00000074430190730084355960000015133354805275683477_);fill:#1D1D1B;" d="M327.6,408.2
			c-0.2-0.1-0.3-0.2-0.5-0.2c-0.5,0.2-1,0.3-1.5,0.5c-1.8,0.8-3.7,1.5-5.5,2.3c-7.1,3.2-14.2,6.4-21.2,9.8c-5.3,2.5-10.6,5.3-15.8,8
			c-1.8,0.9-1.9,1.1-0.3,2.5c4.1,3.8,8.2,7.5,12.3,11.3c1.4,1.3,1.4,1.3,3,0.2c0.1-0.1,0.3-0.2,0.4-0.3c4.2-2.7,8.4-5.5,12.7-7.9
			c4-2.2,8.2-3.9,12.3-5.8c1.3-0.6,2-1.5,2.2-3c0.3-3.1,0.8-6.2,1.1-9.3C327.1,413.6,327.3,410.9,327.6,408.2L327.6,408.2z
			 M362.6,565.4c-19.5,10-38.1,20.8-55.6,33.8c0.5,0.4,0.8,0.6,1.2,0.8c4,2.6,8.1,5.2,12.1,7.8c1.1,0.7,2,0.7,3.1-0.1
			c6.8-5.2,13.7-10.2,20.6-15.4c5.4-4,10.9-8.1,16.4-12.1c1.1-0.8,1.7-1.8,1.8-3.1c0.2-2.1,0.4-4.2,0.4-6.3
			C362.6,569.2,362.6,567.5,362.6,565.4L362.6,565.4z M553.7,261.7c-0.1,0-0.3,0.1-0.4,0.1c-0.1,0.4-0.3,0.8-0.4,1.1
			c-0.8,2.6-1.5,5.2-2.4,7.7c-5.1,13.3-10.2,26.5-15.5,39.7c-4.7,11.5-9.7,22.9-14.6,34.3c-6.1,14.1-12.2,28.1-18.3,42.1
			c-5.1,11.8-10,23.6-15,35.4c-0.7,1.8-1.4,3.6-2.2,5.6c0.8-0.1,1.4,0,1.9-0.2c4.5-1.1,9-2.2,13.5-3.2c2-0.4,3.1-1.5,3.7-3.4
			c3.3-10.6,7-21,11.1-31.2c2.4-5.9,4.1-12.1,6.7-17.9c5.6-12.7,11.6-25.3,17.4-37.9c5.8-12.7,11.4-25.4,17.2-38c2-4.5,4.3-9,5.1-14
			c0.4-2.5,0.7-5-0.6-7.4c-1.9-3.5-3.7-7-5.6-10.5C554.8,263.3,554.3,262.5,553.7,261.7L553.7,261.7z M497.8,271.9
			c0.8,0,1.4,0,1.9-0.1c4.8-1.2,9.6-2.5,14.4-3.7c1.6-0.4,2.6-1.2,3.2-2.7c5.2-12.6,10.6-25.1,15.7-37.7
			c5.2-12.7,10.3-25.4,14.7-38.4c4.5-13.3,9.2-26.4,13.8-39.7c0.6-1.8,0.5-3.6-0.2-5.4c-3.2-7.8-6.4-15.5-9.6-23.3
			c-0.2-0.4-0.6-0.8-0.9-1.1c-0.3,0.4-0.6,0.7-0.8,1.2c-2.5,6.5-5,13-7.5,19.5c-5.2,13.7-10.5,27.3-15.5,41.1
			c-4.4,12-8.6,24-12.5,36.1c-5.4,16.9-10.5,34-15.7,51C498.4,269.6,498.2,270.6,497.8,271.9L497.8,271.9z M358.3,712.3
			c0.3,0.2,0.5,0.5,0.8,0.7c3.8,3,7.6,6,11.4,9c1.2,1,1.3,1,2.1-0.2c3.5-5.2,7.1-10.5,10.5-15.8c4.7-7.2,9.3-14.6,14.1-21.8
			c8.8-13.2,17.8-26.3,26.8-39.5c9.4-13.8,17.5-28.2,25.6-42.7c6.9-12.2,13.7-24.5,20.5-36.8c6.6-11.8,13.3-23.6,18.7-36
			c4.6-10.4,10-20.5,15.2-30.7c2.6-5.1,5.6-9.9,8.1-15c3.1-6.2,5.8-12.6,8.7-19c3.6-7.8,7.4-15.5,9.4-24c0.5-2.2,0.5-4-0.8-6
			c-2.2-3.4-4.2-6.9-6.3-10.4c-0.2-0.4-0.7-0.7-1-1c-0.3,0.3-0.6,0.6-0.8,1c-0.7,1.3-1.3,2.6-1.9,3.9c-6.6,14.7-13.4,29.4-19.9,44.2
			c-6.6,15.1-14.1,29.7-21.6,44.3c-8.6,16.6-17.4,33.2-26.2,49.7c-3.8,7.1-7.7,14.1-11.8,21.1c-5.3,9-10.8,18-16.3,26.9
			c-7.1,11.5-14.1,23.1-21.4,34.5c-7.3,11.5-14.9,22.9-22.5,34.3c-4.4,6.7-8.8,13.4-14,19.5C363.1,705.6,360.8,708.9,358.3,712.3
			L358.3,712.3z M482.3,430c2.6-6.2,5-12,7.5-17.8c5.2-12.3,10.5-24.5,15.8-36.8c3.5-8.2,6.8-16.4,10.4-24.6
			c5-11.6,10.3-23.1,15.3-34.7c4.1-9.6,8-19.4,11.9-29.1c3.2-8,6.4-16,8.5-24.3c0.9-3.3,0.3-4-3-3c-8.9,2.5-17.7,5-26.5,7.5
			c-8,2.2-15.9,4.4-23.9,6.5c-1.7,0.5-2.1,0-1.6-1.7c0.9-3,1.8-6,2.7-8.9c3.9-12.9,7.8-25.8,11.8-38.7c3-9.4,5.9-18.8,9.3-28.1
			c4.4-12.1,9.2-24.1,13.7-36.2c4.1-10.9,8.2-21.8,12.2-32.7c1.1-3.1,2.1-6.2,3.1-9.3c0.3-1,0-1.5-1.1-1.3c-2.6,0.3-5.3,0.6-7.9,1
			c-9.8,1.6-19.5,3.2-29.3,4.8c-8.7,1.5-17.3,3-26,4.5c-11.1,1.9-22.3,3.7-33.4,5.4c-14.4,2.3-28.7,4.6-43.1,6.7
			c-12.8,1.9-25.6,3.6-38.4,5.4c-14.1,2-28.1,3.9-42.2,5.9c-3.2,0.4-3.2,0.5-3.7,3.7c-1.8,12-3.5,24-5.6,36
			c-2.7,15.5-5.5,30.9-8.5,46.4c-2.7,14.1-5.8,28.1-8.6,42.1c-2.2,11-3.7,22-5,33.1c-1.2,10.5-2.5,20.9-4.2,31.3
			c-2.6,15.9-5.7,31.8-8.6,47.6c-1.3,7-2.7,14-3.7,21c-0.7,4.3-0.8,8.7-1.2,13.1c-0.1,1.2,0,2.4,0,4c16.7-7.7,32.8-15.7,49.7-22.7
			c-0.1,1.2-0.2,2.1-0.2,2.9c-0.1,5.4-0.5,10.8-1.4,16.1c-1.7,9.4-3.3,18.7-4.8,28.1c-1.2,7.3-2.1,14.7-3.1,22
			c-1.4,10.4-2.6,20.8-4,31.2c-0.8,6-1.6,12-2.4,18c-1,7.3-2.1,14.5-3.1,21.8c-1.1,7.8-2.1,15.7-3.1,23.5
			c-1.1,8.6-2.3,17.2-3.4,25.8c-0.1,0.8,0.1,1.6,0.2,2.4c0.1,0.7,0.6,1,1.3,0.6c1.4-0.9,2.8-1.6,4.2-2.5
			c8.2-5.3,16.2-10.8,24.5-15.8c8.2-5,16.7-9.5,25.1-14.1c1.8-1,3.6-1.9,5.6-3c-0.1,2.3-0.2,4.3-0.4,6.3
			c-0.7,10.6-1.5,21.2-2.3,31.8c-0.4,5.1-0.9,10.2-1.4,15.2c-0.8,8.2-1.6,16.4-2.4,24.7c-0.7,8.3-1.5,16.7-2.1,25.1
			c-0.6,7.9-1.1,15.8-1.3,23.7c-0.2,6.4,0,12.8-0.1,19.2c0,0.9,0.2,1.7,1.1,1.9c0.7,0.1,1.8,0.1,2.3-0.3c1.1-0.9,2.1-2,3-3.2
			c1.9-2.4,3.6-5,5.4-7.5c5.5-7.8,11.3-15.4,16.6-23.4c8.5-13,16.8-26.1,25.1-39.3c7.6-12.1,15.2-24.2,22.6-36.4
			c6.7-11.2,13.3-22.5,19.6-33.9c6.9-12.5,13.5-25.1,20.1-37.7c5.5-10.6,10.9-21.2,16.1-32c4.9-10.1,9.7-20.3,14.4-30.5
			c5.6-12.3,11.1-24.8,16.6-37.1c1.1-2.6,2.3-5.1,3.6-8.1c-1.4,0.1-2.5,0.2-3.6,0.4c-8.4,1.9-16.7,3.9-25.1,5.9
			C489,428.4,485.8,429.2,482.3,430L482.3,430z M325.1,430.3c-10.8,3.3-19.7,9.6-28.9,15.2c-2.6-2.4-5.2-4.8-7.9-7.2
			c-2.6-2.3-5.2-4.7-7.9-6.9c-2.1-1.7-2.9-3.7-2.5-6.4c1.1-7.8,1.9-15.7,3.3-23.5c2-12.1,4.4-24.1,6.6-36.2
			c2.2-12.4,4.3-24.7,6.2-37.2c1.1-7,1.5-14.1,2.3-21.1c1.1-10.4,3.1-20.6,5.1-30.8c4.2-21.5,8.6-43,12.6-64.5
			c3.3-18.2,6.2-36.4,9.2-54.6c0.3-1.7,0.2-3.5,0.3-5.3c0.1-1.7,0.4-2,2-2.2c17.2-2.4,34.4-4.8,51.6-7.2c17.8-2.5,35.6-4.9,53.3-7.7
			c28.7-4.5,57.4-9.3,86-14c9.2-1.5,18.3-3.1,27.5-4.6c2-0.3,4.1-0.3,6.2-0.4c1-0.1,1.3,0.7,1.7,1.5c1.6,3.8,3.3,7.6,4.9,11.4
			c2.4,5.5,4.7,11,7.1,16.5c0.8,1.9,0.8,3.7,0.1,5.6c-3.3,9.1-6.4,18.2-9.7,27.3c-4.8,13.2-9.5,26.5-14.5,39.7
			c-2.8,7.4-6,14.6-9.1,21.8c-3.6,8.4-7.2,16.8-10.7,25.3c-0.3,0.7-0.5,1.3-0.9,2.4c11.6-3.3,23-6.5,34.4-9.7
			c0.2,0.3,0.4,0.5,0.5,0.8c2.8,5.5,5.6,11,8.5,16.4c1.5,2.9,1.7,5.8,1,9c-1.9,7.9-5.3,15.2-8.7,22.5c-9.2,19.7-18.5,39.5-27.5,59.3
			c-3,6.7-5.4,13.6-8,20.5c-4.4,11.6-8.7,23.3-13.1,34.9c-0.3,0.8-0.4,1.6-0.7,2.7c1.2-0.3,2.2-0.5,3.2-0.7c4.3-1,8.7-2,13-3.1
			c0.7-0.2,1.1-0.1,1.5,0.5c3.1,4.8,6.2,9.6,9.3,14.5c1.3,2,1.3,4.1,0.5,6.4c-2.6,8-6,15.7-9.7,23.3c-6.5,13.5-12.7,27.2-18.8,40.9
			c-7,15.7-15.3,30.8-23.8,45.8c-8.2,14.5-16.3,29-24.5,43.5c-6.9,12.1-13.4,24.4-20.8,36.2c-7.7,12.4-16.2,24.3-24.2,36.5
			c-6.8,10.2-13.3,20.6-20.1,30.8c-5.3,8.1-10.8,16.1-16.2,24.1c-0.2,0.3-0.4,0.5-0.6,0.8c-1.4,1.8-2.6,2-4.5,0.7
			c-2.2-1.6-4.2-3.3-6.4-5c-2.4-1.8-4.9-3.6-7.4-5.3c-1.6-1.1-2.6-2.5-2.7-4.5c-0.1-2.1,0-4.3,0-6.5c0.2-8.3,0.2-16.6,0.6-24.9
			c0.6-10.7,1.3-21.5,2.2-32.2c0.9-10.4,2.1-20.8,3.1-31.2c0.9-9.7,1.8-19.3,2.7-29c0.1-1,0.1-2.1,0.2-3.4c-2.2,1.6-4.1,2.9-6,4.3
			c-10.6,7.9-21.2,15.7-31.8,23.6c-2.2,1.6-2.4,1.6-4.7,0.2c-5.4-3.3-10.7-6.6-16.1-9.8c-1.3-0.8-1.8-1.8-1.6-3.2
			c1.6-12.5,3.1-24.9,4.7-37.4c1.4-11.1,3-22.1,4.5-33.2c1.4-10.2,2.8-20.5,4.1-30.7c0.8-6,1.5-12.1,2.1-18.1
			c1.6-13.9,4-27.6,6.7-41.3C324.4,434.3,324.7,432.4,325.1,430.3L325.1,430.3z"/>
	</g>
	<path class="st12" d="M410.6,275.5c-0.3,0.1-0.9,0.1-1.4,0.3c-7.3,2.3-14.5,4.6-21.8,6.9c-6.4,2.1-12.6,4.5-19,6.3
		c-6.3,1.9-10.5,5.7-12,12c-1.8,7.4-3.1,14.9-4.3,22.3c-1.1,6.7-2,13.5-2.9,20.3c-1.3,9.4-2.5,18.8-3.7,28.2
		c-1.2,9.6-2.3,19.3-3.4,28.9c-0.8,6.5-1.7,13-2.5,19.6c-0.8,6.5-1.5,13.1-2.4,19.6c-1,7.7-2.1,15.4-3.2,23.1
		c-2.3,16.2-4.5,32.4-6.8,48.6c-1.5,10.4-2.9,20.8-4.4,31.2c-1.3,9.2-2.6,18.4-4,27.5c-0.2,1.5-0.5,3.1-0.6,4.6
		c-0.2,1.6,0.5,2.1,2,1.5c0.7-0.3,1.4-0.7,2.1-1.2c4.4-2.6,8.8-5.3,13.3-7.7c9.1-4.8,18.8-8.3,28.3-12.2
		c12.4-5.1,24.6-10.3,36.9-15.6c1.4-0.6,2.9-1.6,3.7-2.9c2.4-3.4,4.7-6.8,6.5-10.5c3.4-6.8,6.6-13.8,9.8-20.8
		c2.3-5.1,3.9-10.4,5-15.9c0.3-1.6-0.2-2.2-1.8-1.7c-4.1,1.2-8.2,2.4-12.2,3.6c-9.3,2.8-18.6,5.5-27.8,8.4c-2.9,0.9-5.9,1.9-8.8,2.9
		c-0.9,0.3-1.3,0-1.2-0.9c0.1-1.1,0-2.2,0.2-3.3c1.3-8.4,2.8-16.9,4.1-25.3c2.1-13.2,4.1-26.5,6.1-39.7c1.8-11.6,3.5-23.2,5.3-34.7
		c1.6-10.4,3.2-20.8,4.8-31.2c1.2-7.9,2.6-15.7,3.9-23.6c0.8-5,1.3-10,2.4-15c2.4-11,4.9-22,7.6-32.9c1.4-5.6,3.5-11.1,5.2-16.6
		C414.4,277.4,413,275.5,410.6,275.5L410.6,275.5z M476.1,330.1c-0.6-1-1.2-1.5-1.4-2.2c-3.4-10.1-6.8-20.2-10.2-30.3
		c-1-3-1.6-3.6-4.8-3.8c-0.7,0-1.5,0-2.3,0.2c-8.2,2.2-16.5,3.2-24.9,4.6c-3.2,0.5-6.5,0.9-9.5,2.4c-1.6,0.8-1.9,1.3-1.1,3
		c1.8,4.3,3.6,8.5,5.5,12.8c3.7,8.4,7.3,16.9,11.2,25.3c3,6.5,6.5,12.8,9.8,19.1c2.4,4.7,4.8,9.4,7.5,13.9c1.6,2.7,1.8,5,0.5,7.8
		c-7.2,16-14.3,32-21.4,48c-2.5,5.6-4.6,11.4-7.3,16.9c-3.6,7.3-7.7,14.4-11.6,21.6c-1.4,2.5-3,4.8-4.4,7.2
		c-0.9,1.6-0.1,2.9,1.7,2.9c0.6,0,1.2,0,1.8-0.1c3.5-0.2,6.9-0.1,10.3-0.6c6-0.9,11.8-2.2,17.8-3.3c2-0.4,2.4,0.1,1.9,2.1
		c0,0.2-0.1,0.3-0.2,0.5c-1.3,3.5-2.5,7-3.8,10.5c-1,2.7-2,5.5-3.3,8.1c-2.8,5.7-5.9,11.4-8.7,17.1c-3.3,6.8-6.1,13.9-9.6,20.6
		c-6.6,12.7-13.5,25.4-20.4,37.9c-6.7,12.1-13.5,24-20.3,36c-1.1,1.9-2.4,3.8-3,5.9c-1,3.6-1.7,7.3-2.2,11c-1,6.9-1.8,13.8-2.7,20.7
		c-1.2,9.1-2.3,18.2-3.5,27.3c-0.2,1.4,0.3,2.5,1.3,3.5c1.4,1.4,1.7,1.5,2.8-0.1c1.7-2.4,3.4-4.9,5-7.4c5.5-8.9,11.1-17.7,16.5-26.7
		c5.2-8.7,10-17.7,15-26.5c4.1-7.3,8.3-14.6,12.3-21.9c5-9.1,9.7-18.4,14.8-27.5c7.1-12.8,14.2-25.6,21.5-38.2
		c6.9-12,13.8-24,19.9-36.5c4.8-9.9,9.9-19.7,14.9-29.6c3.1-6.1,6.2-12.2,9.2-18.3c1-1.9,1.7-4,2.6-6.3c-12.4,4.4-24.9,6.9-37.8,7.7
		c0.1-1.4,0-2.7,0.3-3.8c0.6-2.5,1.3-5,2.3-7.4c3.3-7.5,6.7-15,10.1-22.5c3.6-7.9,7.3-15.8,10.8-23.8c2.2-4.9,4-10,6.1-15
		c1.7-3.9,3.9-7.7,5.6-11.6c3.3-7.5,6.5-15,9.8-22.5c5.2-12.1,10.5-24.2,15.5-36.4c2.8-6.8,5.7-13.7,7.6-20.9c1-3.9-0.3-4.1-3.4-3.4
		c-4.5,1-9,2.2-13.5,3.4c-7.8,1.9-15.5,3.9-23.3,5.8c-0.9,0.2-1.6,0.6-1.9,1.6c-2.6,7.4-5.2,14.8-7.8,22.2c-2,5.7-4,11.4-6,17.1
		C477.3,328.8,476.7,329.3,476.1,330.1L476.1,330.1z M531.3,128.8c-0.8,0.1-1.5,0.1-2.3,0.3c-8.3,1.7-16.6,3.5-25,5.1
		c-8.9,1.7-17.9,3.2-26.9,4.7c-12.7,2-25.3,3.8-38,5.7c-13.2,2-26.5,4-39.7,6.2c-13.6,2.3-27.2,4.8-40.8,7.2
		c-5.3,0.9-10.6,1.8-15.9,2.8c-5.3,1-8.7,4.2-9.7,9.6c-0.7,3.7-1.6,7.3-2.3,11c-1.2,5.7-2.5,11.5-3.4,17.2c-1.5,9.6-2.7,19.2-4,28.8
		c-1.3,9.2-2.5,18.5-3.9,27.7c-1.8,12.4-3.5,24.8-5.7,37.1c-2.6,14.9-5.7,29.7-8.6,44.6c-2.7,13.4-5.5,26.7-8.1,40
		c-2.1,10.8-3.9,21.7-5.7,32.5c-0.1,0.6,0.1,1.5,0.5,1.8c0.4,0.3,1.3,0.3,1.8,0.1c3.1-1.2,6-2.6,9.1-3.8c7.5-3,14.4-7,21.4-11.1
		c5.2-3.1,8.3-7.4,9.7-13.2c1.2-4.7,2.5-9.4,3.7-14.1c4.3-16.6,6.9-33.6,9.6-50.5c1.4-8.5,1.9-17.2,4.4-25.5c0.7-2.3,0.7-4.9,1-7.4
		c0.2-1.7,1.1-2.6,2.7-3.2c5.5-2,11-4.2,16.6-6.1c8.2-2.9,16.5-5.7,24.8-8.5c6.1-2.1,12.4-4,18.5-6.2c3.1-1.1,5.3-3.5,6.6-6.7
		c1.2-2.9,2.1-6,3.4-8.8c2.4-5.6,5.2-11,7.5-16.6c1.4-3.5,2.2-7.3,3-11.1c0.4-2-0.4-3.4-2.1-4c-1.4-0.5-3-1-4.5-0.9
		c-4,0.3-8.1,0.6-12,1.5c-7.1,1.5-14.2,3.2-21.2,5.2c-7.7,2.2-15.4,4.8-23,7.2c-2.8,0.9-5.6,2-8.5,2.9c-1.2,0.4-1.4,0.1-1-1.1
		c1.7-5.6,3.4-11.2,5.2-16.8c0.8-2.5,1.7-5,2.2-7.5c0.5-2.7,2.3-5.2,5-5.9c9.2-2.4,18.3-4.8,27.5-7.1c14.8-3.6,29.8-6.7,44.9-8.6
		c8.8-1.1,17.6-2.4,26.4-3.7c10.5-1.5,21-3.4,31.1-6.9c3.4-1.2,6.8-2.5,10-4.2c3.9-2,6.3-5.7,8.7-9.3c5.3-8,9.2-16.7,11-26.1
		C535.5,129.8,534.9,128.9,531.3,128.8L531.3,128.8z M482.3,430c3.5-0.8,6.7-1.5,9.9-2.3c8.4-2,16.7-3.9,25.1-5.9
		c1.1-0.2,2.2-0.2,3.6-0.4c-1.3,2.9-2.5,5.5-3.6,8.1c-5.5,12.4-11,24.8-16.6,37.1c-4.7,10.2-9.5,20.4-14.4,30.5
		c-5.2,10.7-10.6,21.4-16.1,32c-6.6,12.6-13.2,25.3-20.1,37.7c-6.3,11.4-12.9,22.7-19.6,33.9c-7.4,12.2-15,24.3-22.6,36.4
		c-8.3,13.1-16.5,26.3-25.1,39.3c-5.3,8-11,15.6-16.6,23.4c-1.8,2.5-3.5,5-5.4,7.5c-0.9,1.2-1.9,2.3-3,3.2c-0.5,0.4-1.6,0.5-2.3,0.3
		c-0.9-0.2-1.1-1-1.1-1.9c0-6.4-0.2-12.8,0.1-19.2c0.3-7.9,0.8-15.8,1.3-23.7c0.6-8.4,1.3-16.7,2.1-25.1c0.7-8.2,1.6-16.4,2.4-24.7
		c0.5-5.1,1-10.1,1.4-15.2c0.8-10.6,1.5-21.2,2.3-31.8c0.1-2,0.2-4,0.4-6.3c-2.1,1.1-3.9,2-5.6,3c-8.4,4.7-16.9,9.2-25.1,14.1
		c-8.3,5-16.4,10.5-24.5,15.8c-1.4,0.9-2.8,1.7-4.2,2.5c-0.7,0.4-1.2,0.2-1.3-0.6c-0.2-0.8-0.3-1.6-0.2-2.4
		c1.1-8.6,2.2-17.2,3.4-25.8c1-7.8,2-15.7,3.1-23.5c1-7.3,2.1-14.5,3.1-21.8c0.8-6,1.7-12,2.4-18c1.3-10.4,2.6-20.8,4-31.2
		c1-7.4,1.9-14.7,3.1-22c1.5-9.4,3.2-18.8,4.8-28.1c0.9-5.3,1.3-10.7,1.4-16.1c0-0.9,0.1-1.7,0.2-2.9c-16.9,6.9-33,14.9-49.7,22.7
		c0-1.6-0.1-2.8,0-4c0.3-4.4,0.5-8.8,1.2-13.1c1.1-7,2.5-14,3.7-21c2.9-15.9,5.9-31.7,8.6-47.6c1.7-10.4,3-20.8,4.2-31.3
		c1.2-11.1,2.8-22.2,5-33.1c2.8-14,5.9-28,8.6-42.1c3-15.4,5.8-30.9,8.5-46.4c2.1-12,3.8-24,5.6-36c0.5-3.3,0.5-3.3,3.7-3.7
		c14.1-2,28.1-3.9,42.2-5.9c12.8-1.8,25.6-3.5,38.4-5.4c14.4-2.1,28.7-4.5,43.1-6.7c11.1-1.8,22.3-3.6,33.4-5.4
		c8.7-1.4,17.3-3,26-4.5c9.7-1.6,19.5-3.2,29.3-4.8c2.6-0.4,5.3-0.7,7.9-1c1.1-0.1,1.4,0.4,1.1,1.3c-1,3.1-2,6.3-3.1,9.3
		c-4,10.9-8.1,21.8-12.2,32.7c-4.6,12.1-9.3,24-13.7,36.2c-3.3,9.3-6.3,18.7-9.3,28.1c-4,12.9-7.9,25.8-11.8,38.7
		c-0.9,3-1.8,6-2.7,8.9c-0.5,1.7-0.1,2.2,1.6,1.7c8-2.2,15.9-4.3,23.9-6.5c8.9-2.5,17.7-5,26.5-7.5c3.3-0.9,3.9-0.3,3,3
		c-2.2,8.3-5.3,16.3-8.5,24.3c-3.9,9.7-7.8,19.5-11.9,29.1c-5,11.6-10.2,23.1-15.3,34.7c-3.5,8.1-6.9,16.4-10.4,24.6
		c-5.2,12.3-10.5,24.5-15.8,36.8C487.3,418,484.9,423.8,482.3,430L482.3,430z"/>
	<path class="st13" d="M358.3,712.3c2.5-3.3,4.7-6.7,7.3-9.7c5.3-6.1,9.6-12.8,14-19.5c7.5-11.4,15.1-22.7,22.5-34.3
		c7.3-11.4,14.3-23,21.4-34.5c5.5-8.9,11-17.9,16.3-26.9c4.1-6.9,8-14,11.8-21.1c8.8-16.5,17.6-33,26.2-49.7
		c7.5-14.6,15-29.3,21.6-44.3c6.5-14.8,13.2-29.5,19.9-44.2c0.6-1.3,1.2-2.6,1.9-3.9c0.2-0.4,0.6-0.7,0.8-1c0.4,0.3,0.8,0.6,1,1
		c2.1,3.5,4.1,7,6.3,10.4c1.3,1.9,1.3,3.7,0.8,6c-2.1,8.4-5.8,16.2-9.4,24c-2.9,6.3-5.7,12.7-8.7,19c-2.5,5.1-5.5,10-8.1,15
		c-5.2,10.2-10.6,20.3-15.2,30.7c-5.5,12.4-12.2,24.2-18.7,36c-6.8,12.3-13.6,24.5-20.5,36.8c-8.1,14.5-16.2,29-25.6,42.7
		c-8.9,13.1-17.9,26.3-26.8,39.5c-4.8,7.2-9.3,14.5-14.1,21.8c-3.5,5.3-7,10.5-10.5,15.8c-0.8,1.3-0.9,1.2-2.1,0.2
		c-3.8-3-7.6-6-11.4-9C358.8,712.8,358.6,712.5,358.3,712.3L358.3,712.3z"/>
	<path class="st13" d="M497.8,271.9c0.4-1.3,0.7-2.3,1-3.3c5.2-17,10.3-34.1,15.7-51c3.9-12.1,8.1-24.1,12.5-36.1
		c5-13.7,10.3-27.4,15.5-41.1c2.5-6.5,5-13,7.5-19.5c0.2-0.4,0.5-0.8,0.8-1.2c0.3,0.4,0.7,0.7,0.9,1.1c3.2,7.7,6.4,15.5,9.6,23.3
		c0.7,1.8,0.9,3.6,0.2,5.4c-4.6,13.2-9.3,26.4-13.8,39.7c-4.4,13-9.5,25.7-14.7,38.4c-5.2,12.6-10.5,25.1-15.7,37.7
		c-0.6,1.5-1.6,2.3-3.2,2.7c-4.8,1.1-9.6,2.5-14.4,3.7C499.2,271.9,498.6,271.8,497.8,271.9L497.8,271.9z"/>
	<path class="st13" d="M553.7,261.7c0.5,0.8,1.1,1.6,1.5,2.4c1.9,3.5,3.8,7,5.6,10.5c1.3,2.4,1,4.9,0.6,7.4c-0.8,5-3.1,9.4-5.1,14
		c-5.7,12.7-11.4,25.4-17.2,38c-5.8,12.7-11.8,25.2-17.4,37.9c-2.6,5.8-4.3,12-6.7,17.9c-4.2,10.2-7.8,20.7-11.1,31.2
		c-0.6,1.9-1.7,3-3.7,3.4c-4.5,1-9,2.1-13.5,3.2c-0.5,0.1-1.1,0.1-1.9,0.2c0.8-2,1.5-3.8,2.2-5.6c5-11.8,9.9-23.6,15-35.4
		c6-14.1,12.2-28.1,18.3-42.1c4.9-11.4,9.9-22.8,14.6-34.3c5.3-13.2,10.4-26.4,15.5-39.7c1-2.5,1.6-5.1,2.4-7.7
		c0.1-0.4,0.3-0.8,0.4-1.1C553.4,261.8,553.6,261.7,553.7,261.7L553.7,261.7z"/>
	<path class="st13" d="M362.6,565.4c0,2,0.1,3.8,0,5.5c-0.1,2.1-0.3,4.2-0.4,6.3c-0.1,1.3-0.7,2.3-1.8,3.1c-5.5,4-10.9,8-16.4,12.1
		c-6.9,5.1-13.7,10.2-20.6,15.4c-1.1,0.8-1.9,0.8-3.1,0.1c-4-2.6-8.1-5.2-12.1-7.8c-0.3-0.2-0.7-0.5-1.2-0.8
		C324.5,586.2,343.1,575.5,362.6,565.4L362.6,565.4z"/>
	<path class="st13" d="M327.6,408.2c-0.2,2.7-0.4,5.3-0.7,8c-0.3,3.1-0.8,6.2-1.1,9.3c-0.2,1.5-0.9,2.4-2.2,3
		c-4.1,1.9-8.4,3.6-12.3,5.8c-4.4,2.4-8.5,5.3-12.7,7.9c-0.1,0.1-0.3,0.2-0.4,0.3c-1.6,1.2-1.6,1.2-3-0.2
		c-4.1-3.8-8.2-7.5-12.3-11.3c-1.5-1.4-1.5-1.6,0.3-2.5c5.2-2.7,10.5-5.4,15.8-8c7-3.4,14.1-6.6,21.2-9.8c1.8-0.8,3.6-1.6,5.5-2.3
		c0.5-0.2,1-0.3,1.5-0.5C327.3,408.1,327.4,408.2,327.6,408.2L327.6,408.2z"/>
	<path class="st14" d="M531.3,128.8c3.6,0.1,4.2,1,3.5,4.5c-1.9,9.5-5.7,18.1-11,26.1c-2.4,3.6-4.8,7.3-8.7,9.3
		c-3.2,1.7-6.6,3-10,4.2c-10.1,3.5-20.5,5.4-31.1,6.9c-8.8,1.3-17.6,2.6-26.4,3.7c-15.2,1.9-30.1,5-44.9,8.6
		c-9.2,2.2-18.4,4.7-27.5,7.1c-2.7,0.7-4.5,3.2-5,5.9c-0.5,2.6-1.4,5-2.2,7.5c-1.7,5.6-3.5,11.2-5.2,16.8c-0.4,1.2-0.1,1.4,1,1.1
		c2.9-0.9,5.7-2,8.5-2.9c7.7-2.4,15.3-5,23-7.2c7-2,14.1-3.7,21.2-5.2c3.9-0.8,8-1.2,12-1.5c1.5-0.1,3.1,0.4,4.5,0.9
		c1.7,0.6,2.5,2,2.1,4c-0.8,3.7-1.6,7.5-3,11.1c-2.2,5.6-5,11-7.5,16.6c-1.3,2.9-2.2,5.9-3.4,8.8c-1.2,3.1-3.4,5.5-6.6,6.7
		c-6.1,2.2-12.3,4.1-18.5,6.2c-8.3,2.8-16.5,5.6-24.8,8.5c-5.6,2-11.1,4.1-16.6,6.1c-1.5,0.6-2.5,1.5-2.7,3.2c-0.3,2.5-0.3,5-1,7.4
		c-2.6,8.3-3,17-4.4,25.5c-2.8,16.9-5.3,33.9-9.6,50.5c-1.2,4.7-2.5,9.4-3.7,14.1c-1.4,5.8-4.5,10.1-9.7,13.2
		c-6.9,4.1-13.9,8.1-21.4,11.1c-3,1.2-6,2.6-9.1,3.8c-0.5,0.2-1.4,0.3-1.8-0.1c-0.4-0.3-0.6-1.2-0.5-1.8c1.9-10.8,3.6-21.7,5.7-32.5
		c2.6-13.4,5.5-26.7,8.1-40c2.9-14.8,6-29.7,8.6-44.6c2.2-12.3,3.9-24.7,5.7-37.1c1.4-9.2,2.6-18.4,3.9-27.7
		c1.3-9.6,2.5-19.2,4-28.8c0.9-5.8,2.2-11.5,3.4-17.2c0.7-3.7,1.6-7.3,2.3-11c1-5.5,4.4-8.6,9.7-9.6c5.3-1,10.6-1.9,15.9-2.8
		c13.6-2.4,27.2-5,40.8-7.2c13.2-2.2,26.5-4.2,39.7-6.2c12.7-1.9,25.3-3.7,38-5.7c9-1.4,18-3,26.9-4.7c8.4-1.6,16.7-3.4,25-5.1
		C529.8,128.9,530.6,128.9,531.3,128.8L531.3,128.8z"/>
	<path class="st14" d="M476.1,330.1c0.6-0.9,1.1-1.3,1.3-1.9c2-5.7,4-11.4,6-17.1c2.6-7.4,5.2-14.8,7.8-22.2c0.3-1,1-1.3,1.9-1.6
		c7.8-1.9,15.6-3.8,23.3-5.8c4.5-1.1,9-2.3,13.5-3.4c3.1-0.7,4.4-0.5,3.4,3.4c-1.9,7.2-4.8,14-7.6,20.9c-5,12.2-10.3,24.3-15.5,36.4
		c-3.2,7.5-6.4,15-9.8,22.5c-1.8,3.9-3.9,7.7-5.6,11.6c-2.2,4.9-4,10-6.1,15c-3.5,8-7.2,15.9-10.8,23.8c-3.4,7.5-6.8,15-10.1,22.5
		c-1,2.3-1.6,4.9-2.3,7.4c-0.3,1.2-0.2,2.4-0.3,3.8c13-0.9,25.4-3.4,37.8-7.7c-1,2.3-1.7,4.4-2.6,6.3c-3,6.1-6.1,12.2-9.2,18.3
		c-5,9.9-10.1,19.7-14.9,29.6c-6,12.5-13,24.5-19.9,36.5c-7.3,12.7-14.4,25.4-21.5,38.2c-5,9.1-9.8,18.4-14.8,27.5
		c-4,7.4-8.2,14.6-12.3,21.9c-5,8.8-9.8,17.8-15,26.5c-5.3,9-10.9,17.8-16.5,26.7c-1.6,2.5-3.3,5-5,7.4c-1.1,1.5-1.5,1.5-2.8,0.1
		c-1-1-1.5-2.1-1.3-3.5c1.2-9.1,2.3-18.2,3.5-27.3c0.9-6.9,1.7-13.8,2.7-20.7c0.5-3.7,1.2-7.4,2.2-11c0.6-2.1,1.9-4,3-5.9
		c6.7-12,13.6-24,20.3-36c6.9-12.6,13.8-25.2,20.4-37.9c3.5-6.7,6.3-13.8,9.6-20.6c2.8-5.8,5.9-11.4,8.7-17.1
		c1.3-2.6,2.3-5.4,3.3-8.1c1.3-3.5,2.5-7,3.8-10.5c0.1-0.2,0.1-0.3,0.2-0.5c0.6-2,0.1-2.5-1.9-2.1c-5.9,1.1-11.8,2.4-17.8,3.3
		c-3.4,0.5-6.9,0.4-10.3,0.6c-0.6,0-1.2,0.1-1.8,0.1c-1.8,0-2.7-1.3-1.7-2.9c1.4-2.4,3.1-4.8,4.4-7.2c3.9-7.2,8-14.3,11.6-21.6
		c2.7-5.5,4.8-11.3,7.3-16.9c7.1-16,14.2-32.1,21.4-48c1.3-2.9,1.1-5.1-0.5-7.8c-2.7-4.5-5-9.2-7.5-13.9c-3.3-6.4-6.7-12.7-9.8-19.1
		c-3.9-8.3-7.5-16.8-11.2-25.3c-1.9-4.2-3.7-8.5-5.5-12.8c-0.7-1.7-0.5-2.2,1.1-3c3-1.5,6.3-1.9,9.5-2.4c8.3-1.4,16.7-2.4,24.9-4.6
		c0.7-0.2,1.5-0.2,2.3-0.2c3.2,0.2,3.8,0.8,4.8,3.8c3.4,10.1,6.8,20.2,10.2,30.3C474.9,328.6,475.5,329.2,476.1,330.1L476.1,330.1z"
		/>
	<path class="st14" d="M410.6,275.5c2.4,0,3.8,1.9,3.1,4c-1.8,5.5-3.8,11-5.2,16.6c-2.7,10.9-5.2,21.9-7.6,32.9
		c-1.1,4.9-1.6,10-2.4,15c-1.3,7.9-2.7,15.7-3.9,23.6c-1.7,10.4-3.2,20.8-4.8,31.2c-1.8,11.6-3.5,23.2-5.3,34.7
		c-2,13.2-4,26.5-6.1,39.7c-1.3,8.5-2.8,16.9-4.1,25.3c-0.2,1.1-0.1,2.2-0.2,3.3c-0.1,0.9,0.3,1.2,1.2,0.9c2.9-1,5.8-2,8.8-2.9
		c9.3-2.8,18.6-5.6,27.8-8.4c4.1-1.2,8.2-2.4,12.2-3.6c1.6-0.5,2.1,0.1,1.8,1.7c-1.1,5.5-2.7,10.8-5,15.9c-3.2,7-6.3,14-9.8,20.8
		c-1.8,3.7-4.1,7.1-6.5,10.5c-0.9,1.2-2.3,2.3-3.7,2.9c-12.3,5.3-24.5,10.5-36.9,15.6c-9.5,3.9-19.2,7.3-28.3,12.2
		c-4.5,2.4-8.9,5.1-13.3,7.7c-0.7,0.4-1.4,0.8-2.1,1.2c-1.5,0.7-2.1,0.2-2-1.5c0.2-1.5,0.4-3.1,0.6-4.6c1.3-9.2,2.7-18.4,4-27.5
		c1.5-10.4,3-20.8,4.4-31.2c2.3-16.2,4.5-32.4,6.8-48.6c1.1-7.7,2.2-15.4,3.2-23.1c0.8-6.5,1.5-13.1,2.4-19.6
		c0.8-6.5,1.7-13,2.5-19.6c1.2-9.6,2.2-19.3,3.4-28.9c1.2-9.4,2.4-18.8,3.7-28.2c0.9-6.8,1.7-13.5,2.9-20.3c1.3-7.5,2.6-15,4.3-22.3
		c1.5-6.2,5.7-10.1,12-12c6.4-1.9,12.7-4.3,19-6.3c7.2-2.4,14.5-4.6,21.8-6.9C409.7,275.7,410.3,275.6,410.6,275.5L410.6,275.5z"/>
</g>
</svg>
