<?xml version="1.0" encoding="UTF-8"?>
<svg id="Layer_1" data-name="Layer 1" xmlns="http://www.w3.org/2000/svg" version="1.1" viewBox="0 0 841.9 841.9">
  <defs>
    <style>
      .cls-4 {
        fill: #fff;
        stroke-width: 0px;
      }
    </style>
  </defs>
  <path class="cls-4" d="M480.3,428.2c3.4-.7,6.5-1.3,9.6-2,8.2-1.8,16.2-3.5,24.4-5.2,1.1-.2,2.1-.2,3.5-.4-1.3,2.6-2.4,4.9-3.5,7.2-5.3,11-10.7,22.1-16.1,33-4.6,9.1-9.2,18.1-14,27.1-5,9.5-10.3,19-15.6,28.5-6.4,11.2-12.8,22.5-19.5,33.5-6.1,10.1-12.5,20.2-19,30.2-7.2,10.9-14.6,21.6-21.9,32.4-8.1,11.7-16,23.4-24.4,35-5.1,7.1-10.7,13.9-16.1,20.8-1.7,2.2-3.4,4.4-5.2,6.7-.9,1.1-1.8,2-2.9,2.8-.5.4-1.6.4-2.2.3-.9-.2-1.1-.9-1.1-1.7,0-5.7-.2-11.4.1-17.1.3-7,.8-14.1,1.3-21.1.6-7.5,1.3-14.9,2-22.3.7-7.3,1.6-14.6,2.3-22,.5-4.5,1-9,1.4-13.5.8-9.4,1.5-18.9,2.2-28.3.1-1.8.2-3.6.4-5.6-2,1-3.8,1.8-5.4,2.7-8.2,4.2-16.4,8.2-24.4,12.5-8.1,4.4-15.9,9.3-23.8,14.1-1.4.8-2.7,1.5-4.1,2.2-.7.4-1.2.2-1.3-.5-.2-.7-.3-1.4-.2-2.1,1.1-7.6,2.1-15.3,3.3-22.9,1-6.9,1.9-14,3-20.9,1-6.5,2-12.9,3-19.4.8-5.3,1.6-10.7,2.3-16,1.3-9.3,2.5-18.5,3.9-27.8,1-6.6,1.8-13.1,3-19.6,1.5-8.4,3.1-16.7,4.7-25,.9-4.7,1.3-9.5,1.4-14.3,0-.8.1-1.5.2-2.6-16.4,6.1-32,13.3-48.2,20.2,0-1.4-.1-2.5,0-3.6.3-3.9.5-7.8,1.2-11.7,1.1-6.2,2.4-12.5,3.6-18.7,2.8-14.1,5.7-28.2,8.3-42.3,1.6-9.3,2.9-18.5,4.1-27.8,1.2-9.9,2.7-19.7,4.9-29.4,2.7-12.5,5.7-24.9,8.3-37.4,2.9-13.7,5.6-27.5,8.2-41.3,2-10.7,3.7-21.3,5.4-32q.5-2.9,3.6-3.3c13.7-1.8,27.3-3.5,41-5.2,12.4-1.6,24.8-3.1,37.3-4.8,14-1.9,27.9-4,41.8-6,10.8-1.6,21.6-3.2,32.4-4.8,8.4-1.2,16.8-2.7,25.2-4,9.4-1.4,18.9-2.8,28.4-4.3,2.5-.4,5.1-.6,7.7-.9,1.1-.1,1.4.4,1.1,1.2-1,2.8-1.9,5.6-3,8.3-3.9,9.7-7.9,19.4-11.8,29.1-4.5,10.8-9,21.3-13.3,32.2-3.2,8.3-6.1,16.6-9,25-3.9,11.5-7.7,22.9-11.5,34.4-.9,2.7-1.7,5.3-2.6,7.9-.5,1.5-.1,2,1.6,1.5,7.8-2,15.4-3.8,23.2-5.8,8.6-2.2,17.2-4.4,25.7-6.7,3.2-.8,3.8-.3,2.9,2.7-2.1,7.4-5.1,14.5-8.2,21.6-3.8,8.6-7.6,17.3-11.5,25.9-4.9,10.3-9.9,20.5-14.8,30.9-3.4,7.2-6.7,14.6-10.1,21.9-5,10.9-10.2,21.8-15.3,32.7-3,5.1-5.3,10.3-7.9,15.8h0Z"/>
</svg>
