<?xml version="1.0" encoding="utf-8"?>
<!-- Generator: Adobe Illustrator 28.3.0, SVG Export Plug-In . SVG Version: 6.00 Build 0)  -->
<svg version="1.1" id="Layer_1" xmlns="http://www.w3.org/2000/svg" xmlns:xlink="http://www.w3.org/1999/xlink" x="0px" y="0px"
	 viewBox="0 0 841.9 841.9" style="enable-background:new 0 0 841.9 841.9;" xml:space="preserve">
<style type="text/css">
	.st0{fill:#FFFFFF;}
  .st3{fill:#000000;}
</style>
<rect class="st3" y="0" width="842" height="842"/>
<path class="st0" d="M480.3,428.2c3.4-0.7,6.5-1.3,9.6-2c8.2-1.8,16.2-3.5,24.4-5.2c1.1-0.2,2.1-0.2,3.5-0.4
	c-1.3,2.6-2.4,4.9-3.5,7.2c-5.3,11-10.7,22.1-16.1,33c-4.6,9.1-9.2,18.1-14,27.1c-5,9.5-10.3,19-15.6,28.5
	c-6.4,11.2-12.8,22.5-19.5,33.5c-6.1,10.1-12.5,20.2-19,30.2c-7.2,10.9-14.6,21.6-21.9,32.4c-8.1,11.7-16,23.4-24.4,35
	c-5.1,7.1-10.7,13.9-16.1,20.8c-1.7,2.2-3.4,4.4-5.2,6.7c-0.9,1.1-1.8,2-2.9,2.8c-0.5,0.4-1.6,0.4-2.2,0.3c-0.9-0.2-1.1-0.9-1.1-1.7
	c0-5.7-0.2-11.4,0.1-17.1c0.3-7,0.8-14.1,1.3-21.1c0.6-7.5,1.3-14.9,2-22.3c0.7-7.3,1.6-14.6,2.3-22c0.5-4.5,1-9,1.4-13.5
	c0.8-9.4,1.5-18.9,2.2-28.3c0.1-1.8,0.2-3.6,0.4-5.6c-2,1-3.8,1.8-5.4,2.7c-8.2,4.2-16.4,8.2-24.4,12.5c-8.1,4.4-15.9,9.3-23.8,14.1
	c-1.4,0.8-2.7,1.5-4.1,2.2c-0.7,0.4-1.2,0.2-1.3-0.5c-0.2-0.7-0.3-1.4-0.2-2.1c1.1-7.6,2.1-15.3,3.3-22.9c1-6.9,1.9-14,3-20.9
	c1-6.5,2-12.9,3-19.4c0.8-5.3,1.6-10.7,2.3-16c1.3-9.3,2.5-18.5,3.9-27.8c1-6.6,1.8-13.1,3-19.6c1.5-8.4,3.1-16.7,4.7-25
	c0.9-4.7,1.3-9.5,1.4-14.3c0-0.8,0.1-1.5,0.2-2.6c-16.4,6.1-32,13.3-48.2,20.2c0-1.4-0.1-2.5,0-3.6c0.3-3.9,0.5-7.8,1.2-11.7
	c1.1-6.2,2.4-12.5,3.6-18.7c2.8-14.1,5.7-28.2,8.3-42.3c1.6-9.3,2.9-18.5,4.1-27.8c1.2-9.9,2.7-19.7,4.9-29.4
	c2.7-12.5,5.7-24.9,8.3-37.4c2.9-13.7,5.6-27.5,8.2-41.3c2-10.7,3.7-21.3,5.4-32c0.5-2.9,0.5-2.9,3.6-3.3c13.7-1.8,27.3-3.5,41-5.2
	c12.4-1.6,24.8-3.1,37.3-4.8c14-1.9,27.9-4,41.8-6c10.8-1.6,21.6-3.2,32.4-4.8c8.4-1.2,16.8-2.7,25.2-4c9.4-1.4,18.9-2.8,28.4-4.3
	c2.5-0.4,5.1-0.6,7.7-0.9c1.1-0.1,1.4,0.4,1.1,1.2c-1,2.8-1.9,5.6-3,8.3c-3.9,9.7-7.9,19.4-11.8,29.1c-4.5,10.8-9,21.3-13.3,32.2
	c-3.2,8.3-6.1,16.6-9,25c-3.9,11.5-7.7,22.9-11.5,34.4c-0.9,2.7-1.7,5.3-2.6,7.9c-0.5,1.5-0.1,2,1.6,1.5c7.8-2,15.4-3.8,23.2-5.8
	c8.6-2.2,17.2-4.4,25.7-6.7c3.2-0.8,3.8-0.3,2.9,2.7c-2.1,7.4-5.1,14.5-8.2,21.6c-3.8,8.6-7.6,17.3-11.5,25.9
	c-4.9,10.3-9.9,20.5-14.8,30.9c-3.4,7.2-6.7,14.6-10.1,21.9c-5,10.9-10.2,21.8-15.3,32.7C485.2,417.5,482.9,422.7,480.3,428.2
	L480.3,428.2z"/>
</svg>
