<?xml version="1.0" encoding="utf-8"?>
<!-- Generator: Adobe Illustrator 28.3.0, SVG Export Plug-In . SVG Version: 6.00 Build 0)  -->
<svg version="1.1" id="Layer_1" xmlns="http://www.w3.org/2000/svg" xmlns:xlink="http://www.w3.org/1999/xlink" x="0px" y="0px"
	 viewBox="0 0 389.89 390.28" style="enable-background:new 0 0 389.89 390.28;" xml:space="preserve">
<style type="text/css">
	.st0{display:none;fill:#EB1C2D;}
	.st1{display:none;}
	.st2{display:inline;fill:#FFFFFF;}
	.st3{display:inline;}
	.st4{fill:#FFFFFF;}
	.st5{fill:#1E428A;}
</style>
<rect class="st0" width="390" height="390"/>
<g class="st1">
	<path class="st2" d="M277.22,178.03c12.08,0,24.02,0,36.09,0c0,9.39,0,18.56,0,27.95c-0.81,0.06-1.6,0.16-2.39,0.16
		c-10.34,0.01-20.67,0.01-31.01,0.01c-0.82,0-1.64,0-2.27,0c-0.22,0.21-0.27,0.25-0.31,0.3c-0.04,0.05-0.11,0.09-0.11,0.15
		c-0.05,0.5-0.13,1.01-0.13,1.51c0.01,26.32,0.02,52.63,0.04,78.95c0,0.18,0.11,0.35,0.23,0.74c12.74,0,25.53,0,38.25,0
		c0.48,1.52,0.61,23.74,0.22,26.32c-1.38,0.36-61.31,0.49-64.2,0.15c-0.04-0.04-0.08-0.08-0.12-0.13c-0.04-0.05-0.11-0.1-0.11-0.15
		c-0.04-78.69-0.08-157.38-0.12-236.07c0-0.57,0.01-1.14,0.05-1.71c0.01-0.18,0.12-0.35,0.18-0.5c1.49-0.41,62.27-0.47,64.21-0.08
		c0.37,1.36,0.49,23.21,0.1,26.02c-4.24,0.05-8.52,0.02-12.81,0.02c-4.25,0.01-8.5,0-12.75,0c-4.3,0-8.59,0-13.03,0
		C277.22,127.17,277.22,152.49,277.22,178.03z"/>
	<path class="st2" d="M159.12,314.35c0-8.85,0-17.45,0-26.27c0.7-0.03,1.37-0.07,2.04-0.1c3.29-0.12,6.62,0.04,9.86-0.42
		c7.82-1.09,14.63-4.41,20.16-10.13c3.82-3.95,6.06-8.7,6.74-14.16c0.27-2.2,0.57-4.4,0.7-6.61c0.44-7.74-1.28-15.1-4.02-22.28
		c-3.19-8.37-7.27-16.32-11.7-24.08c-4.97-8.69-10.17-17.25-15.19-25.91c-4.85-8.36-9.04-17.02-11.43-26.43
		c-4.34-17.06-3.61-33.9,3.65-50.03c7.84-17.42,21.65-27.64,40.25-31.52c6.45-1.35,12.99-1.12,19.51-1.07c0.18,0,0.35,0.11,0.8,0.25
		c0,8.53,0,17.13,0,25.96c-0.76,0.04-1.42,0.09-2.09,0.12c-3.23,0.12-6.49-0.03-9.67,0.4c-8.15,1.09-15.29,4.41-21.08,10.36
		c-3.84,3.95-5.81,8.76-6.73,14.18c-1.88,11.12,0.39,21.52,4.82,31.65c3.77,8.61,8.19,16.87,12.9,24.99
		c3.95,6.79,8.11,13.46,12.07,20.25c4.13,7.07,7.69,14.42,10.32,22.19c3.74,11.04,4.93,22.34,3.75,33.93
		c-0.82,8.01-2.59,15.75-6.1,23.02c-8.07,16.72-21.29,26.85-39.43,30.62c-3.67,0.76-7.38,1.12-11.14,1.1
		C165.2,314.33,162.29,314.35,159.12,314.35z"/>
	<path class="st2" d="M99.09,287.83c12.68,0,25.14,0,37.53,0c0.46,1.73,0.51,24.52,0.09,26.46c-21,0-42.02,0-63.16,0
		c0-79.63,0-159.16,0-238.81c8.52,0,16.92,0,25.53,0C99.09,146.28,99.09,216.94,99.09,287.83z"/>
</g>
<g class="st1">
	<g class="st3">
		<path class="st4" d="M170.51,197.92c-30.33,0-60.66,0-91,0c-6.89,0-7.8-0.84-7.87-7.9c-0.08-8.12-0.02-16.25-0.02-24.37
			c0-12.44,0-24.88,0-37.32c0-8.2,3.28-13.39,11.27-15.49c9.63-2.53,19.43-4.65,29.28-6.09c27.28-3.97,54.75-5.48,82.3-4.59
			c20.37,0.65,40.77,1.82,60.19,8.98c20.87,7.7,38.4,19.76,50.11,39.25c7.86,13.07,11,27.35,11.23,42.41
			c0.11,7.23,0.02,14.47,0.02,21.71c0,5.53-4,7.67-8.97,4.71c-1.28-0.76-2.36-1.9-3.43-2.97c-11.87-11.78-26.2-18.11-42.87-18.25
			C230.67,197.75,200.59,197.92,170.51,197.92z M260.82,182.84c10.79,0,21.58,0.03,32.37-0.02c3.67-0.01,4.93-1.47,3.67-4.66
			c-5.58-14.23-13.14-27.1-25.6-36.56c-12.94-9.83-27.91-11.14-43.36-10.5c-2.96,0.12-3.27,2.15-3.27,4.54
			c0.04,14.09,0.07,28.19-0.02,42.28c-0.02,3.55,1.33,5.01,4.96,4.96C240,182.75,250.41,182.84,260.82,182.84z M115.33,182.64
			c7.73,0,15.47,0.02,23.2-0.01c4.62-0.02,5.39-0.77,5.39-5.22c0.02-13.7,0.02-27.39,0-41.09c-0.01-4.56-0.67-5.24-5.32-5.25
			c-15.34-0.02-30.69-0.02-46.03,0c-4.41,0.01-5.11,0.7-5.12,5.05c-0.02,13.95,0.08,27.9-0.07,41.85c-0.04,3.57,1.44,4.72,4.73,4.69
			C99.86,182.59,107.6,182.64,115.33,182.64z M184.3,130.86c-7.73,0-15.47,0.05-23.2-0.03c-2.94-0.03-4.58,0.99-4.57,4.13
			c0.02,14.33,0.03,28.65,0,42.98c-0.01,2.81,1.12,4.12,4.09,4.1c15.59-0.08,31.18-0.06,46.77-0.02c3.15,0.01,4.67-1.31,4.66-4.53
			c-0.04-14.07-0.05-28.15,0.01-42.22c0.01-3.24-1.33-4.52-4.58-4.46C199.77,130.95,192.04,130.86,184.3,130.86z"/>
		<path class="st4" d="M170.67,214.04c29.7,0,59.4-0.04,89.09,0.02c13.25,0.02,24.97,4.41,34.27,13.85
			c5.83,5.91,12.06,9.24,20.53,8.37c4.39-0.45,5.95,1.42,6.01,5.82c0.06,5.08,0.07,10.16,0,15.23c-0.07,4.91-2.11,6.91-6.94,6.93
			c-5.71,0.03-11.42-0.06-17.13,0.03c-2.66,0.04-3.82-0.85-3.99-3.7c-1.04-17.86-13.32-31.16-31.01-32.67
			c-19.76-1.69-34.98,13.51-36.13,30.77c-0.35,5.2-0.66,5.58-5.77,5.58c-21.58,0-43.15-0.07-64.73,0.07
			c-3.52,0.02-4.74-0.93-5.02-4.62c-1.33-17.54-14.59-30.62-31.94-31.95c-17.29-1.32-34.4,14.04-35.01,31.42
			c-0.17,4.74-0.51,5.13-5.39,5.05c-2.81-0.04-6.3,1.01-7.8-2.35c-1.54-3.46-1.36-7.09,0.84-10.53c0.75-1.17,1.02-2.83,1.04-4.27
			c0.09-8.76,0.04-17.52,0.05-26.28c0.01-5.58,1.6-7.14,7.28-7.14c30.59,0,61.17,0,91.76,0
			C170.67,213.81,170.67,213.92,170.67,214.04z"/>
		<path class="st4" d="M259.56,242.93c12.68-0.04,21.96,9.36,22.17,22.44c0.18,11.73-10.39,22.44-22.19,22.46
			c-12.04,0.03-22.56-10.18-22.63-21.95C236.83,253.03,246.77,242.97,259.56,242.93z M270.94,265.51
			c0.11-5.63-5.4-11.12-11.23-11.19c-5.77-0.06-10.93,4.88-11.19,10.71c-0.26,5.71,5.14,11.36,10.92,11.43
			C265.26,276.54,270.83,271.23,270.94,265.51z"/>
		<path class="st4" d="M117.06,242.93c12.41,0,21.9,9.66,21.91,22.31c0.01,12.05-10.1,22.14-22.3,22.26
			c-11.94,0.12-22.34-10.22-22.34-22.2C94.33,252.44,104,242.93,117.06,242.93z M105.74,265.38c0.01,6.11,5.14,11.22,11.13,11.09
			c5.87-0.13,11.01-5.17,11.11-10.89c0.1-6-5.38-11.36-11.51-11.25C110.61,254.42,105.73,259.45,105.74,265.38z"/>
	</g>
</g>
<rect class="st5" width="390" height="390"/>
<g>
	<path class="st4" d="M263.17,261.45c-0.24,0.81-0.64,1.62-0.71,2.44c-0.92,11.44-1.92,22.88-2.58,34.34
		c-0.15,2.59,0.98,5.24,1.43,7.88c0.21,1.22,0.54,2.56,0.26,3.71c-0.59,2.35-0.46,4.56,0.85,6.5c2.68,3.95,2.81,8.52,3.16,12.95
		c0.42,5.38,0.38,10.8,0.33,16.2c-0.01,0.87-0.9,2.22-1.68,2.5c-3.98,1.44-8.06,2.27-12.3,0.8c-1.06-0.37-2.36-0.39-3.49-0.2
		c-8.95,1.52-17.87,3.23-27.01,2.93c-0.75-0.02-1.62,0.06-2.21-0.29c-0.88-0.52-2.05-1.29-2.19-2.11c-0.17-0.99,0.42-2.28,1.06-3.16
		c0.47-0.64,1.53-1.02,2.38-1.16c4.98-0.79,8.68-4.3,13.19-6.1c2.22-0.89,4.35-2.02,6.52-3.02c2.7-1.25,3.27-2.18,2.9-5.08
		c-0.33-2.61-0.77-5.2-1.09-7.81c-0.1-0.79-0.21-1.76,0.14-2.39c1.23-2.25,1.2-4.56,0.92-7c-2.04-17.37-4.08-34.74-6.02-52.11
		c-0.93-8.36-1.71-16.73-2.46-25.11c-0.24-2.7-1.3-4.43-4-5.3c-3.1-0.99-3.36-1.63-3-4.82c1.27-11.06,3.62-21.89,6.67-32.59
		c0.95-3.32,1.69-6.7,2.37-10.08c0.33-1.65,1.06-2.49,2.77-2.66c12.05-1.24,23.11-5.51,33.84-10.9c3.8-1.91,7.79-3.47,11.73-5.1
		c2.13-0.88,3.81-2.07,4.29-4.49c0.85-4.31,3.55-7.72,5.59-11.46c0.48-0.88,0.43-2.05,0.62-3.08c-1.11-0.15-2.4-0.72-3.3-0.35
		c-1.83,0.76-3.68,1.78-5.1,3.12c-6.98,6.59-15.15,11.48-23.11,16.69c-1.88,1.23-3.75,2.47-5.56,3.79
		c-3.57,2.62-7.77,2.84-11.86,2.68c-8.24-0.33-16.46-1.08-24.69-1.67c-0.82-0.06-1.63-0.25-2.45-0.33
		c-4.23-0.41-6.94,2.68-5.81,6.86c0.24,0.89,1.48,2,2.38,2.14c3.25,0.49,6.56,0.61,9.86,0.85c2.68,0.19,5.35,0.37,7.74,1.97
		c-0.79,1.97-2.46,1.95-3.85,1.93c-2.7-0.03-5.39-0.43-8.08-0.52c-2.92-0.1-5.84,0-8.76-0.04c-1.26-0.02-2.54-0.35-3.78-0.24
		c-2.49,0.23-5.04,0.41-7.4,1.16c-0.98,0.31-1.94,1.94-2.18,3.11c-2.3,11.35-3.75,22.83-3.85,34.41
		c-0.18,20.65-0.11,41.31-0.29,61.96c-0.05,6.37-0.6,12.74-0.84,19.11c-0.06,1.63,0.13,3.28,0.25,4.92
		c0.19,2.62,0.53,5.23,0.61,7.84c0.19,6,0.05,12.02,0.45,18.01c0.26,3.88,1.18,7.72,3.86,10.83c0.29,0.34,0.61,0.67,0.95,0.96
		c3.57,3.08,3.57,3.08,0.25,6.47c-1.15,1.17-2.17,2.52-3.49,3.47c-0.68,0.49-1.91,0.47-2.82,0.31c-2.27-0.39-4.47-1.2-6.75-1.48
		c-4.33-0.54-6.09-4.33-3.57-8.05c0.21-0.31,0.44-0.64,0.73-0.85c3.75-2.67,4.55-6.62,4.37-10.78c-0.36-8.54-0.98-17.07-1.45-25.61
		c-0.25-4.57-0.43-9.15-0.6-13.72c-0.06-1.7,0.19-3.25,1.73-4.4c0.49-0.37,0.85-1.32,0.78-1.96c-0.29-2.66-0.78-5.3-1.16-7.96
		c-0.15-1.02-0.3-2.06-0.29-3.09c0.04-2.91,0.62-5.89,0.16-8.71c-1.31-7.98,0.11-15.67,1.59-23.43c0.52-2.76,0.56-5.69,0.29-8.5
		c-0.82-8.84-1.27-17.59,0.41-26.46c1.23-6.51,2.5-13.21,1.21-19.9c-0.7-3.65-2.02-7.18-3.06-10.76c-1-3.43-2.1-6.83-2.96-10.3
		c-0.47-1.89-1.39-2.57-2.94-1.32c-1.42,1.14-2.44,2.76-3.73,4.09c-1.11,1.14-2.27,2.24-3.52,3.24c-2.67,2.14-5.31,4.35-8.15,6.25
		c-2.33,1.55-4.84,2.91-7.43,3.94c-4.03,1.6-8.15,2.99-12.32,4.22c-6.61,1.94-13.36,1.62-20.09,0.7c-0.36-0.05-0.71-0.23-1.05-0.38
		c-3.66-1.65-4.76-1.32-5.65,2.67c-1.2,5.33-2.07,10.75-2.82,16.16c-0.68,4.9-0.98,9.86-1.54,14.78c-0.23,2.01-0.6,4.01-1.11,5.97
		c-0.68,2.58-2.31,3.08-4.57,1.57c-0.37-0.25-0.68-0.61-1.08-0.81c-1.53-0.78-2.87-0.72-3.24,1.26c-0.61,3.3-1.66,6.67-1.47,9.94
		c0.47,8.3,1.47,16.57,2.37,24.85c0.83,7.68,2.16,15.32,2.6,23.02c0.37,6.42-0.34,12.89-0.39,19.34
		c-0.05,6.52,0.13,13.04,0.22,19.56c0.04,2.6,1.47,4.05,3.96,4.35c3.35,0.4,6.75,0.47,10.06,1.06c1.74,0.31,3.43,1.28,4.95,2.25
		c0.52,0.33,0.47,1.56,0.68,2.37c-0.81,0.18-1.68,0.65-2.41,0.49c-9.72-2.09-19.51-3.41-29.49-2.83c-1.65,0.1-2.84,0.46-3.45,2.23
		c-0.22,0.63-1.35,1.32-2.05,1.31c-1.13-0.02-2.37-0.39-3.34-0.98c-2.92-1.8-5.81-2.68-9.07-0.85c-1.69,0.95-3.54,1.62-5.22,2.58
		c-0.83,0.47-1.81,1.16-2.09,1.97c-0.49,1.43-0.8,3.08-0.54,4.51c0.09,0.49,2.15,0.85,3.31,0.86c5.4,0.05,10.8-0.1,16.19-0.06
		c2.06,0.01,3.66,1.08,5.04,3.19c-0.92,0.18-1.58,0.41-2.25,0.42c-7.43,0.08-14.85,0.16-22.28,0.18c-3.45,0.01-4.4-1.03-4.32-4.48
		c0.01-0.45,0.01-0.91,0.08-1.35c2.22-13.38,4.33-26.79,6.73-40.14c1.46-8.11,3.43-16.14,5.12-24.21c0.98-4.7,2.04-9.39,2.73-14.13
		c0.37-2.56,0.17-5.24-0.01-7.85c-0.74-10.59-2.91-20.94-5.48-31.21c-0.53-2.12-1.73-3.27-4.06-3.48
		c-3.88-0.35-7.75-0.92-11.59-1.54c-1.11-0.18-2.13-0.85-3.61-1.46c1.76-1.86,3.53-2.52,5.46-2.72c1.33-0.15,2.71-0.11,4.05,0.03
		c11.87,1.24,23.74,2.46,35.59,3.87c1.93,0.23,3.87,1.18,5.6,2.15c1.5,0.83,2.42,0.56,3.13-0.77c0.48-0.9,0.89-1.92,1.04-2.92
		c1.46-9.95,2.86-19.91,4.28-29.86c0.03-0.22,0.05-0.45,0.08-0.67c0.65-5.13-1.87-8.56-6.89-9.9c-1.47-0.39-3.13-1.35-3.97-2.56
		c-4.09-5.89-6.54-12.45-6.82-19.69c-0.12-3.16,1.2-4.71,4.36-5.24c2.44-0.41,4.94-0.5,7.36-1.01c2.1-0.44,4.13-1.21,6.15-1.97
		c1.54-0.58,2.85-0.58,3.61,1.05c0.73,1.55,1.43,3.15,1.85,4.81c0.74,2.93,2.56,4.45,5.45,4.94c1.1,0.19,2.17,0.6,3.28,0.75
		c1.73,0.22,3.51,0.55,5.23,0.39c2.8-0.26,5.56-1.2,8.67-0.02c-1.31,4.89-6.02,2.14-8.75,4.07c2.41,1.8,4.91,2.49,7.64,1.93
		c3.37-0.69,6.69-1.66,10.07-2.34c2.64-0.53,5.32-0.84,8-1.1c0.47-0.05,1.01,0.64,1.52,0.98c-0.42,0.43-0.76,1.08-1.27,1.27
		c-4.9,1.83-9.79,3.72-14.77,5.32c-3.63,1.17-7.37,2.01-11.1,2.82c-0.94,0.2-2.04-0.3-3.42-0.54c0.6-0.88,0.87-1.3,1.16-1.7
		c1.24-1.73,0.91-2.85-1.05-3.6c-0.69-0.27-1.53-0.45-2-0.95c-1.2-1.29-2.12-1.23-3.64-0.29c-2.36,1.47-4.17-0.53-5.7-1.88
		c-1.29-1.14-2.15-2.86-2.92-4.46c-0.69-1.41-1.6-2.02-3.12-2.08c-3.95-0.16-7.15,1.48-9.88,4.13c-1.64,1.59-1.08,3.45-0.05,5.16
		c2.04,3.38,4.53,6.36,7.91,8.49c3.92,2.47,7.78,5.07,11.84,7.3c6.34,3.49,13.21,3.21,20,1.86c8.6-1.71,16.39-5.27,22.88-11.32
		c2.17-2.02,2.37-3.97,0.65-6.38c-0.7-0.97-1.52-1.86-2.33-2.74c-1.73-1.86-1.64-3.01,0.43-4.57c1.94-1.46,2.07-2.41,0.67-4.23
		c-1.3-1.7-2.6-1.39-3.99-0.13c-1.33,1.2-2.57,2.57-4.09,3.47c-0.84,0.5-2.15,0.2-3.25,0.26c0.03-1.13-0.31-2.46,0.18-3.32
		c0.57-1.01,1.75-1.94,2.86-2.32c4.24-1.46,7.37-4.04,9.72-7.87c1.08-1.76,2.97-3.04,4.5-4.53c0.21-0.21,0.48-0.36,0.73-0.53
		c1.21-0.83,1.9-2.11,0.98-3.23c-0.55-0.66-2.24-1.02-3.08-0.69c-2.78,1.1-5.46,2.49-8.08,3.94c-4.97,2.76-9.77,5.84-14.85,8.38
		c-2.06,1.03-4.64,1.35-6.99,1.37c-4.8,0.06-9.61-0.17-14.39-0.58c-1.26-0.11-2.65-1.06-3.6-2.01c-3.55-3.54-7.98-5.23-12.66-6.44
		c-0.82-0.21-1.82-0.03-2.65,0.23c-6.88,2.22-13.5,4.97-18.88,10.03c-2.52,2.37-4.26,5.18-4.92,8.64c-0.81,4.29-2.95,7.9-5.46,11.45
		c-2.12,3.01-3.99,6.37-5.16,9.84c-2.99,8.87-7.09,17.14-11.97,25.1c-1.83,2.99-3.1,6.31-4.89,9.33c-0.76,1.29-1.96,3.29-3.79,2.22
		c-1.73-1.02-0.53-2.97,0.14-4.24c1.81-3.43,3.99-6.68,5.85-10.09c2.43-4.46,4.71-9,7.05-13.51c2.37-4.58,4.74-9.16,7.1-13.75
		c0.34-0.66,0.76-1.32,0.92-2.03c0.81-3.43,1.57-6.87,2.27-10.32c0.12-0.57-0.13-1.22-0.21-1.83c-0.56,0.08-1.18,0.04-1.68,0.26
		c-2.9,1.32-3.06,1.75-2.72,5.27c0.05,0.51-0.43,1.29-0.9,1.61c-2.52,1.73-5.33,2.05-8.16,1.02c-3.17-1.15-4.53-3.89-3.78-7.98
		c0.68-3.69,2.92-6.59,5.88-8.78c2.11-1.57,3.36-1.12,4.86,1.1c0.45,0.67,0.92,1.32,1.44,2.06c4.1-1.94,6.46-5.4,8.46-8.93
		c1.91-3.36,3.12-7.12,4.61-10.72c1.2-2.89,0.16-5.19-2.15-6.93c-2.9-2.19-3.53-4.73-3.03-8.4c0.63-4.62,0.34-9.41-0.01-14.09
		c-0.7-9.42-2.39-18.81-2.43-28.22c-0.05-13.83,7-22.44,20.57-26.13c3.72-1.01,7.62-1.56,11.48-1.84c8.7-0.63,15.99,2.95,22.27,8.59
		c4.68,4.2,9.13,8.68,13.37,13.32c1.93,2.12,3.05,4.96,4.67,7.39c2.17,3.27,3.92,6.85,7.89,8.66c1.19,0.54,2.05,2.52,2.4,4
		c0.35,1.46-0.5,2.65-2.41,2.75c-3.56,0.18-5.04,1.94-4.5,5.55c0.34,2.28,1.04,4.54,1.8,6.73c1.62,4.73,0.94,7.05-3.24,9.76
		c-2.54,1.65-4.4,3.89-5.54,6.62c-2.38,5.73-7.02,8.77-12.48,10.9c-1.68,0.65-3.39,1.22-5.09,1.82c-1.34,0.47-2.86,0.73-2.99,2.58
		c-0.12,1.66,1.57,4.82,3.11,5.11c7.21,1.37,14.49,3.25,21.43-1.04c4.9-3.03,9.73-6.17,14.66-9.16c2.17-1.31,4.51-2.32,6.75-3.52
		c1.96-1.05,3.95-2.08,5.82-3.28c1.77-1.13,3.46-1.04,5.01,0.12c0.52,0.38,0.76,1.44,0.71,2.16c-0.03,0.45-0.84,0.85-1.32,1.25
		c-0.78,0.64-2.31,1.36-2.24,1.86c0.22,1.51,0.7,3.32,1.75,4.28c1.25,1.14,3.19,1.52,4.81,2.23c0.16-0.17,0.36-0.28,0.35-0.38
		c-0.06-2.64,0-5.04,1.2-7.73c1.2-2.67-1.43-5.44-3.04-7.86c-1.61-2.42-3.76-3.83-6.92-3.81c-3.56,0.02-5.7-2.79-7.83-5.13
		c-1-1.1-0.24-2.69,0.92-3.79c1.3-1.23,2.68-1.23,4.11-0.37c0.57,0.34,0.97,0.98,1.55,1.28c0.75,0.38,2.18,0.95,2.32,0.75
		c0.59-0.84,1.01-1.93,1.09-2.95c0.08-1.01-0.53-2.07-0.47-3.09c0.06-0.93,0.61-1.83,0.95-2.74c0.99,0.38,2.36,0.48,2.88,1.2
		c1.06,1.47,1.77,3.22,2.43,4.94c0.76,1.98,1.3,4.03,1.94,6.06c0.27,0,0.53,0,0.8,0c0.39-0.66,0.72-1.36,1.18-1.97
		c1.23-1.64,2.61-3.18,3.74-4.88c0.64-0.97,1.41-2.26,1.25-3.27c-1.01-6.59-2.44-13.11-3.33-19.71c-0.41-3.08-1.66-4.86-4.49-6.03
		c-3.09-1.28-6.28-2.6-8.09-5.76c-0.33-0.58-0.67-1.18-0.86-1.82c-0.61-2.13,0.56-3.51,2.71-2.99c1.66,0.4,3.28,1.08,4.83,1.82
		c2.91,1.38,4.38,0.55,4.14-2.69c-0.2-2.69-0.79-5.34-1.15-8.01c-0.33-2.37-0.64-4.75-0.86-7.14c-0.18-2,1.01-2.87,2.85-2.96
		c1.81-0.09,2.77,0.77,2.91,2.63c0.68,8.83,1.34,17.66,2.14,26.48c0.49,5.42,1.23,10.82,1.86,16.22c0.39,0.03,0.78,0.05,1.17,0.08
		c0.27-1.05,0.7-2.09,0.78-3.15c0.61-7.78,1.31-15.55,1.68-23.35c0.44-9.45,0.53-18.91,0.89-28.36c0.18-4.74,1.43-5.38,5.76-3.57
		c0.8,0.33,1.9,0.19,2.81-0.01c2.24-0.5,3.08,0.05,2.55,2.3c-0.67,2.84-1.56,5.65-2.64,8.36c-3.05,7.7-5.83,15.42-5.36,23.93
		c0.18,3.29-0.09,6.6-0.04,9.9c0.01,0.53,0.58,1.05,0.89,1.58c0.38-0.41,0.89-0.75,1.12-1.23c2.91-6.27,5.4-12.69,6.56-19.54
		c0.24-1.4,0.32-2.83,0.47-4.24c0.17-1.64,0.26-3.29,0.52-4.92c0.27-1.75,1.02-3.4,3.12-3.1c2.1,0.29,1.65,2.21,1.63,3.64
		c-0.02,1.57-0.33,3.14-0.39,4.71c-0.03,0.82,0.18,1.65,0.29,2.48c0.38,0.25,0.76,0.51,1.14,0.76c0.3-0.7,0.42-1.66,0.95-2.03
		c0.83-0.57,2.04-1.12,2.9-0.91c0.51,0.13,0.98,1.74,0.92,2.66c-0.24,3.57-2.61,5.95-5.04,8.23c-3.17,2.97-6.68,5.7-8.41,9.83
		c-1.54,3.66-2.71,7.46-4.18,11.16c-0.85,2.15-1.99,4.19-2.93,6.3c-0.81,1.82-1.87,3.62-2.21,5.54c-1.12,6.38-1.59,12.8-0.57,19.28
		c0.16,0.99-0.11,2.33-0.71,3.09c-1.14,1.44-0.33,2.53,0.45,3.36c0.37,0.39,1.82,0.18,2.51-0.22c5.87-3.41,8.5-8.44,7.39-15.28
		c-0.38-2.37-0.67-4.77-0.8-7.16c-0.11-2.01-0.06-4.05,0.2-6.04c0.1-0.79,0.97-1.48,1.49-2.22c0.76,0.74,1.78,1.36,2.2,2.26
		c0.45,0.97,0.29,2.21,0.48,3.31c0.16,0.9,0.45,1.77,0.68,2.66c0.23,0.01,0.46,0.02,0.68,0.02c0.26-0.71,0.6-1.4,0.75-2.14
		c0.63-3.16,1.2-6.34,1.8-9.51c0.15-0.81,0.16-1.75,0.6-2.37c0.46-0.65,1.32-1.21,2.1-1.35c0.39-0.07,1.01,0.85,1.43,1.39
		c0.3,0.39,0.46,0.9,0.8,1.61c4.68-4.88,4.58-12.35,9.86-17.03c1.54,2.52,1.14,4.79,0.46,6.97c-2.73,8.81-6.45,17.09-12.73,24.05
		c-0.97,1.07-1.84,2.51-2.09,3.9c-1.25,6.79-4.61,12.47-8.9,17.68c-2.33,2.83-4.89,5.47-7.36,8.18c-1.9,2.08-1.85,2.62,0.38,4.39
		c0.77,0.6,1.64,1.16,2.19,1.93c1.78,2.48,3.94,2.47,6.72,1.85c7.91-1.74,15.9-3.07,23.84-4.67c1.82-0.37,3.55-1.21,5.91-2.04
		c-1.85-2.16-3.26-3.67-4.52-5.3c-2.79-3.62-5.12-7.47-4.66-12.31c0.11-1.17,0.35-2.41,0.87-3.46c1.35-2.76,2.88-3,5.28-1.02
		c2.16,1.78,3.04,1.72,4.34-0.77c2.86-5.5,4.21-11.37,3.82-17.59c-0.1-1.65-0.38-3.28-0.5-4.93c-0.31-4.28,1.54-7.33,5.31-9.34
		c5.16-2.74,10.45-5.28,15.37-8.41c4.67-2.97,8.8-6.76,13.38-9.87c7.39-5,15.44-7.62,24.47-5.47c1.03,0.25,2.01,0.88,2.92,1.48
		c2.54,1.69,4.97,3.57,7.56,5.17c1.93,1.19,3.3,2.48,4.01,4.81c1.05,3.42,2.95,6.58,4.01,10c1.12,3.62,2.28,7.4,2.33,11.12
		c0.1,7.41-0.4,14.85-0.98,22.25c-0.23,2.95-1.22,5.87-2.13,8.73c-0.81,2.54-2.55,4.27-5.22,5.17c-1.43,0.48-2.79,1.45-3.89,2.51
		c-1.04,1-1.23,2.39-0.03,3.6c1.23,1.24,3.22,2.11,2.81,4.27c-0.48,2.55-2.23,4.3-4.23,5.87c-2.49,1.96-5.34,2.27-8.31,2.11
		c-2.4-0.13-4.19,0.38-5.03,3.01c-2.16,6.78-4.93,13.39-6.64,20.27c-3.47,13.97-4.74,28.25-4.69,42.64
		c0.02,5.78,0.31,11.56,0.36,17.34c0.01,1.14-0.5,2.28-0.76,3.43c-0.36,1.62-1.22,3.33-0.98,4.86c2.27,14.52,4.64,29.03,7.19,43.51
		c1.27,7.24,2.95,14.4,4.5,21.59c0.54,2.49,1.22,4.95,1.88,7.41c0.13,0.5,0.31,1.1,0.67,1.4c3.49,2.88,2.66,6.77,2.33,10.45
		c-0.07,0.79-1.06,1.87-1.83,2.1c-0.55,0.16-1.61-0.76-2.16-1.43c-0.49-0.6-0.73-1.49-0.86-2.29c-0.34-2.16-1.9-3.26-3.72-3.31
		c-2.35-0.07-4.75,0.42-7.08,0.9c-0.57,0.12-1.38,1.17-1.36,1.76c0.16,3.69,1.4,7.17,5.79,7.99c2.03,0.38,4.34,0.69,6.23,0.1
		c4.59-1.43,8.81,0.02,13.01,1.15c4.98,1.34,9.82,3.22,14.69,4.93c4.26,1.49,4.63,3.33,1.77,6.74c-1.84,2.19-3.99,3.21-6.83,3.16
		c-5.02-0.1-10.06,0.4-14.95-1.37c-0.87-0.31-2.12-0.06-3.03,0.31c-4.12,1.68-8.35,1.69-12.63,0.98c-2.47-0.41-3.01-1.53-3.38-4.01
		c-0.39-2.61-1.01-5.3-2.17-7.64c-1.71-3.45-2.75-6.91-2.83-10.76c-0.16-7.67-2.33-14.96-4.75-22.14c-2.73-8.1-5.6-16.15-8.62-24.14
		c-1.27-3.35-1.88-6.73-2.32-10.24c-0.3-2.44-1.44-4.77-2.21-7.15C263.61,261.43,263.39,261.44,263.17,261.45z M267.59,133.91
		c-0.81-2.07-1.48-3.38-1.8-4.77c-0.13-0.56,0.39-1.42,0.86-1.87c0.19-0.18,1.27,0.19,1.6,0.6c1.19,1.46,2.44,1.29,4.02,0.72
		c0.84-0.3,1.93,0.09,2.91,0.17c-0.39,0.97-0.52,2.3-1.23,2.81c-1.23,0.89-2.85,1.25-4.27,1.9c-0.43,0.2-1.03,0.6-1.04,0.94
		c-0.02,0.36,0.49,0.9,0.89,1.1c4.61,2.24,9.34,4.06,14.57,4.24c5.45,0.18,9.32-1.91,10.71-6.39c1.05-3.41,1.59-6.97,2.35-10.47
		c0.05-0.21-0.02-0.45-0.05-0.67c-0.36-2.21-0.76-4.42-1.09-6.64c-0.29-1.92-1.17-2.89-3.29-2.82c-1.54,0.05-3.14-0.21-4.62-0.65
		c-2-0.59-4.03-1.28-5.83-2.3c-2.76-1.57-5.58-3.2-7.92-5.32c-1.44-1.3-2.37-1.7-4.04-0.81c-3.3,1.77-6.62,3.54-10.03,5.09
		c-2.78,1.26-4.26,3.03-3.82,6.24c0.26,1.92,0.05,3.91,0.26,5.84c0.48,4.35,2.8,7.72,6.11,10.39
		C264.15,132.29,265.81,132.92,267.59,133.91z M275.88,200.81c0.01,0.08,0.02,0.16,0.02,0.24c1.73,0,3.45,0.03,5.18-0.01
		c1.62-0.04,2.62-0.75,2.87-2.52c1.2-8.46,2.47-16.91,3.71-25.37c0.08-0.52,0.12-1.05,0.11-1.57c-0.03-1.91-0.76-2.48-2.55-1.8
		c-6.23,2.38-12.44,4.78-18.63,7.25c-2.08,0.83-3.45,2.43-3.83,4.66c-2.45,14.33-4.88,28.67-7.27,43.01
		c-0.34,2.05,0.71,3.35,2.82,3.52c1.71,0.13,3.45-0.17,5.16-0.04c3.02,0.23,6.04,0.61,9.05,0.99c2.66,0.34,5.3,0.91,7.97,1.06
		c0.79,0.04,1.64-0.99,2.47-1.53c-0.62-0.81-1.18-1.66-1.87-2.4c-0.27-0.29-0.83-0.3-1.26-0.44c-3.67-1.14-7.36-1.21-11.1-0.29
		c-2.37,0.58-3.77-0.37-4.2-2.77c-0.23-1.32-0.37-2.71-0.21-4.03c0.61-5.05,1.29-10.1,2.15-15.12c0.13-0.78,1.26-1.8,2.08-1.97
		C270.95,201.19,273.43,201.07,275.88,200.81z M241.94,225.88c0,0.01,0,0.03,0,0.04c1.5,0.12,2.99,0.27,4.49,0.37
		c4.95,0.33,5.44-0.27,6.02-5.13c0.8-6.77,1.84-13.52,2.87-20.26c0.83-5.41,1.87-10.79,2.66-16.2c0.42-2.91-0.49-3.66-3.46-3.24
		c-3.42,0.48-6.82,1.06-10.24,1.55c-1.85,0.27-2.99,1.26-3.44,3.07c-0.42,1.67-0.84,3.35-1.32,5c-1.28,4.47-0.81,5.3,3.76,6.41
		c0.44,0.11,0.87,0.24,1.31,0.34c1.88,0.42,2.65,1.63,2.33,3.47c-0.32,1.84-0.85,3.65-1.12,5.5c-0.48,3.24-1.14,6.5-1.14,9.75
		c0,3.44-0.81,4.43-4.3,4.16c-1.92-0.15-3.92-0.18-5.77,0.24c-0.86,0.2-1.97,1.58-2.01,2.48c-0.07,1.33,1.07,2.13,2.63,2.14
		C237.45,225.6,239.7,225.78,241.94,225.88z M215.61,164.39c7.83-1.85,15.56-3.56,23.22-5.57c2.65-0.7,4.54-2.49,4.18-5.74
		c-0.11-1,0.19-2.09,0.48-3.09c1.06-3.54,0.21-4.66-3.3-3.76c-5.29,1.36-10.57,2.81-15.73,4.57c-7.36,2.51-14.79,3.82-22.55,2.66
		c-1.62-0.24-3.12-0.18-3.33,1.92c-0.15,1.6,1.12,2.47,3.27,2.42c1.57-0.03,3.16-0.14,4.72-0.01c2.97,0.24,5.58,1.03,6.64,4.37
		C213.47,162.93,214.57,163.45,215.61,164.39z M246.31,162.29c0.21,4.43,0.76,4.9,4.74,4.84c7.42-0.1,13.53-9.8,13.67-15.63
		c0.03-1.44-0.86-1.78-2.07-1.68c-1.34,0.11-2.68,0.35-4.02,0.37c-2.22,0.03-3.37-1.04-3.41-3.24c-0.03-1.49,0.18-2.98,0.3-4.47
		c0.11-1.43-0.3-2.65-1.82-2.91c-1.56-0.27-2.84,0.31-3.2,2.06C249.09,148.51,247.71,155.4,246.31,162.29z M134.56,128.46
		c-0.13-2.32,1.34-3.43,2.98-2.21c2.45,1.82,3.57,0.36,4.92-1.28c2.56-3.11,5.24-6.12,7.74-9.28c0.58-0.73,0.96-1.93,0.85-2.84
		c-0.22-1.77-0.76-3.52-1.35-5.22c-1.74-5.04-2.01-5.14-6.86-3.41c-0.49,0.18-1.05,0.21-1.51,0.44c-2.19,1.13-4.85,2.07-4.81,5.06
		c0.09,6.47-2.37,12.12-5.22,17.68c-0.75,1.47-1.58,2.94-1.99,4.51c-0.22,0.85,0.13,2.58,0.64,2.76c2.07,0.74,5.23-2.27,4.96-4.52
		C134.83,129.49,134.64,128.83,134.56,128.46z M193.34,155.35c-0.96,0.05-1.2,0.01-1.39,0.08c-3.12,1.28-3.11,1.28-4.91-1.7
		c-0.23-0.38-0.53-0.75-0.88-1c-1.32-0.94-1.77-2.05-1.26-3.68c0.44-1.44,0.17-2.7-1.78-2.83c-0.57-0.04-1.16-0.29-1.69-0.56
		c-3.89-1.99-9.97,1.59-9.77,6.59c0.13,3.29,1.31,5.94,3.26,8.37c2.33,2.92,5.08,4.2,8.85,2.5c1.41-0.64,3.29-1.02,4.72-0.63
		c2.21,0.59,3.4-0.15,3.99-1.98C192.97,158.94,193.03,157.25,193.34,155.35z M284.27,212.55c-0.03,0-0.05,0-0.08-0.01
		c0.09-0.97,0.2-1.94,0.26-2.92c0.18-2.86-0.99-4.61-3.84-4.7c-2.8-0.09-5.66,0.35-8.42,0.9c-0.86,0.17-1.98,1.36-2.16,2.25
		c-0.63,2.98-0.97,6.04-1.27,9.08c-0.17,1.75,0.93,2.6,2.6,2.71c3.22,0.21,6.43,0.45,9.66,0.57c1.63,0.06,2.72-0.7,2.84-2.49
		C283.97,216.14,284.12,214.35,284.27,212.55z M209.97,170.81c-0.15-1.23-0.47-3.01-0.58-4.8c-0.2-3.26-3.12-4.55-6.32-3.96
		c-1.38,0.25-1.49,1.31-0.92,2.43c1.19,2.32,0.83,2.95-1.79,2.82c-1.95-0.09-3.88-0.43-5.83-0.48c-1.47-0.04-2.99,0.23-3.12,2.15
		c-0.12,1.84,1.32,1.78,2.59,2.08c0.77,0.18,1.88,0.8,2,1.39c0.15,0.75-0.31,1.92-0.92,2.46c-1.24,1.1-1.8,2.29-1.09,3.75
		c0.79,1.62,2.3,1.82,3.88,1.33c2.72-0.84,5.43-1.7,8.1-2.67C209.53,176.02,210.06,175.15,209.97,170.81z M260.22,328.23
		c-0.68-7.66-3.2-8.07-7.92-6.4c-0.35,0.13-0.72,0.2-1.08,0.33c-1.79,0.63-3.47,1.54-3.23,3.74c0.31,2.79,0.39,5.79,3.23,7.53
		c0.29,0.18,0.79,0.26,1.08,0.13c2.31-1.01,4.68-1.94,6.85-3.21C259.87,329.94,260.05,328.62,260.22,328.23z M233.94,212.79
		c0.71,0.93,1.22,2.2,2.13,2.66c1.38,0.7,4.12-0.84,4.54-2.39c0.7-2.59,1.24-5.23,1.8-7.85c0.46-2.11-0.79-3.41-2.51-3.9
		c-1.67-0.47-2.89,0.78-3.37,2.3C235.59,206.5,234.87,209.46,233.94,212.79z M280.16,142.85c0,0.05,0,0.11,0,0.16
		c-1.27,0-2.54-0.02-3.8,0.01c-0.37,0.01-0.74,0.11-1.1,0.22c-2.04,0.65-2.35,1.71-1.25,4.3c0.92,2.16,2.09,2.78,3.75,1.83
		c2.26-1.3,4.47-2.68,6.66-4.09c0.38-0.24,0.88-0.93,0.78-1.16c-0.2-0.45-0.76-0.96-1.24-1.04
		C282.71,142.89,281.43,142.92,280.16,142.85z M265.16,140.66c-0.1-0.62-0.11-1.56-0.44-2.37c-0.3-0.76-0.95-1.39-1.44-2.07
		c-0.67,0.54-1.63,0.94-1.96,1.64c-0.7,1.48-1.09,3.1-1.57,4.67c-0.4,1.29-1.08,2.69,1.03,3.19c2.22,0.52,3.66-0.29,4.02-2.32
		C264.95,142.59,265.02,141.76,265.16,140.66z M228.64,165.53c0.02,0.39,0.05,0.77,0.07,1.16c3.56,0.53,7.16,0.97,10.74,0.03
		c0.56-0.15,0.98-1.37,1.14-2.16c0.06-0.3-0.9-1.18-1.27-1.12C235.75,164.06,232.2,164.82,228.64,165.53z M268.99,150.16
		c-0.59,1.97-1.2,3.48-1.44,5.05c-0.09,0.57,0.55,1.53,1.11,1.83c0.36,0.19,1.39-0.32,1.77-0.8
		C271.71,154.64,271.34,152.92,268.99,150.16z"/>
	<path class="st4" d="M97.85,340.47c1.06-0.12,2.07-0.38,3.06-0.32c5.98,0.35,11.72,1.55,16.95,4.7c1.34,0.81,2.68,1.71,2.06,3.25
		c-0.52,1.31-1.68,2.75-2.92,3.31c-2.65,1.18-3.49,0.35-3.87-2.49c-0.1-0.8-1.12-1.83-1.94-2.12c-3.32-1.17-6.72-2.1-10.09-3.1
		C99.54,343.24,98.09,342.71,97.85,340.47z"/>
	<path class="st4" d="M121.07,344.93c1.31-2.55,6.16-4.04,8.13-2.72c1.01,0.67,0.71,2.29-0.69,2.83
		C126.06,346.01,123.59,345.81,121.07,344.93z"/>
	<path class="st4" d="M281.24,115.17c1.36,0.37,2.56,0.95,2.48,2.79c-0.1,2.26-1.88,4.14-3.93,4.06c-2.05-0.07-2.38-1.62-2.43-3.13
		C277.31,116.94,279.31,115.09,281.24,115.17z"/>
	<path class="st4" d="M270.98,111.87c1.7-0.05,3.1,1.19,3.17,2.8c0.06,1.54-1.53,2.97-3.31,3.01c-1.97,0.04-2.32-1.27-2.4-2.82
		C268.35,113.06,269.07,111.96,270.98,111.87z"/>
	<path class="st4" d="M148.29,107.53c-0.05,2.72-1.93,5.08-3.47,5.06c-1.68-0.03-2.65-1.34-2.57-3.49c0.07-2.15,1.27-3.69,2.97-3.43
		C146.61,105.87,148.21,106.23,148.29,107.53z"/>
</g>
</svg>
