<?xml version="1.0" encoding="utf-8"?>
<!-- Generator: Adobe Illustrator 28.3.0, SVG Export Plug-In . SVG Version: 6.00 Build 0)  -->
<svg version="1.1" id="Layer_1" xmlns="http://www.w3.org/2000/svg" xmlns:xlink="http://www.w3.org/1999/xlink" x="0px" y="0px"
	 viewBox="0 0 389.9 390.3" style="enable-background:new 0 0 389.9 390.3;" xml:space="preserve">
<style type="text/css">
	.st0{fill:#0000CE;}
	.st1{fill:#FFFFFF;}
</style>
<rect y="0" class="st0" width="389.9" height="389.9"/>
<path class="st1" d="M117.9,299.5c0-12.8,0-25.3,0-38.7c19.3,0,38,0,57.1,0c0-44.1,0-87.4,0-131.5c-18.8,0-37.6,0-57,0
	c0-13.3,0-25.8,0-38.7c51.1,0,102.2,0,153.9,0c0,12.4,0,24.9,0,38.2c-18.9,0-37.6,0-56.8,0c0,44.3,0,87.8,0,132.1c19,0,37.7,0,57,0
	c0,13.3,0,25.8,0,38.6C220.5,299.5,169.5,299.5,117.9,299.5z"/>
</svg>
