<?xml version="1.0" encoding="utf-8"?>
<!-- Generator: Adobe Illustrator 28.3.0, SVG Export Plug-In . SVG Version: 6.00 Build 0)  -->
<svg version="1.1" id="Layer_1" xmlns="http://www.w3.org/2000/svg" xmlns:xlink="http://www.w3.org/1999/xlink" x="0px" y="0px"
	 viewBox="0 0 389.89 390.28" style="enable-background:new 0 0 389.89 390.28;" xml:space="preserve">
<style type="text/css">
	.st0{fill:#0000CE;}
	.st1{fill:#FFFFFF;}
</style>
<g>
	<g>
		<path class="st0" d="M390,390c-130,0-260,0-390,0C0,260,0,130,0,0c130,0,260,0,390,0C390,130,390,260,390,390z M108.82,311.89
			c57.61,0,114.72,0,172.36,0c0-14.31,0-28.29,0-43.21c-21.54,0-42.48,0-63.7,0c0-49.53,0-98.13,0-147.68c21.49,0,42.41,0,63.56,0
			c0-14.88,0-28.79,0-42.71c-57.82,0-114.87,0-172.06,0c0,14.47,0,28.42,0,43.32c21.7,0,42.63,0,63.69,0c0,49.35,0,97.74,0,147.05
			c-21.35,0-42.29,0-63.84,0C108.82,283.57,108.82,297.56,108.82,311.89z"/>
		<path class="st1" d="M108.82,311.89c0-14.33,0-28.31,0-43.23c21.55,0,42.49,0,63.84,0c0-49.32,0-97.7,0-147.05
			c-21.06,0-41.99,0-63.69,0c0-14.9,0-28.84,0-43.32c57.19,0,114.24,0,172.06,0c0,13.92,0,27.83,0,42.71c-21.15,0-42.07,0-63.56,0
			c0,49.55,0,98.15,0,147.68c21.22,0,42.16,0,63.7,0c0,14.91,0,28.89,0,43.21C223.54,311.89,166.44,311.89,108.82,311.89z"/>
	</g>
</g>
</svg>
