<?xml version="1.0" encoding="utf-8"?>
<!-- Generator: Adobe Illustrator 28.3.0, SVG Export Plug-In . SVG Version: 6.00 Build 0)  -->
<svg version="1.1" id="Layer_1" xmlns="http://www.w3.org/2000/svg" xmlns:xlink="http://www.w3.org/1999/xlink" x="0px" y="0px"
	 viewBox="0 0 841.9 841.9" style="enable-background:new 0 0 841.9 841.9;" xml:space="preserve">
<style type="text/css">
	.st0{fill:#FFFFFF;}
  .st1{fill:#000000;}
</style>
<rect class="st1" x="-0.5" y="-0.5" width="842" height="842"/>
<path class="st0" d="M434,270.5c0-44.2,35.8-80,80-80s80,35.8,80,80s-35.8,80-80,80S434,314.7,434,270.5z M433.5,374.9v277.2h159.8
	V534.9C593.3,446.5,521.8,374.9,433.5,374.9z"/>
<path class="st0" d="M247.6,374.5h159.8V651H247.6V374.5z M327.5,190.5c-44.2,0-80,35.8-80,80s35.8,80,80,80s80-35.8,80-80
	S371.7,190.5,327.5,190.5z"/>
</svg>
