<?xml version="1.0" encoding="utf-8"?>
<!-- Generator: Adobe Illustrator 28.3.0, SVG Export Plug-In . SVG Version: 6.00 Build 0)  -->
<svg version="1.1" id="Layer_1" xmlns="http://www.w3.org/2000/svg" xmlns:xlink="http://www.w3.org/1999/xlink" x="0px" y="0px"
	 viewBox="0 0 389.89 390.28" style="enable-background:new 0 0 389.89 390.28;" xml:space="preserve">
<style type="text/css">
	.st0{fill:#ED1C2D;}
	.st1{display:none;}
	.st2{display:inline;fill:#FFFFFF;}
	.st3{fill:#FFFFFF;}
</style>
<rect class="st0" width="390" height="390"/>
<g class="st1">
	<path class="st2" d="M277.22,178.03c12.08,0,24.02,0,36.09,0c0,9.39,0,18.56,0,27.95c-0.81,0.06-1.6,0.16-2.39,0.16
		c-10.34,0.01-20.67,0.01-31.01,0.01c-0.82,0-1.64,0-2.27,0c-0.22,0.21-0.27,0.25-0.31,0.3c-0.04,0.05-0.11,0.09-0.11,0.15
		c-0.05,0.5-0.13,1.01-0.13,1.51c0.01,26.32,0.02,52.63,0.04,78.95c0,0.18,0.11,0.35,0.23,0.74c12.74,0,25.53,0,38.25,0
		c0.48,1.52,0.61,23.74,0.22,26.32c-1.38,0.36-61.31,0.49-64.2,0.15c-0.04-0.04-0.08-0.08-0.12-0.13c-0.04-0.05-0.11-0.1-0.11-0.15
		c-0.04-78.69-0.08-157.38-0.12-236.07c0-0.57,0.01-1.14,0.05-1.71c0.01-0.18,0.12-0.35,0.18-0.5c1.49-0.41,62.27-0.47,64.21-0.08
		c0.37,1.36,0.49,23.21,0.1,26.02c-4.24,0.05-8.52,0.02-12.81,0.02c-4.25,0.01-8.5,0-12.75,0c-4.3,0-8.59,0-13.03,0
		C277.22,127.17,277.22,152.49,277.22,178.03z"/>
	<path class="st2" d="M159.12,314.35c0-8.85,0-17.45,0-26.27c0.7-0.03,1.37-0.07,2.04-0.1c3.29-0.12,6.62,0.04,9.86-0.42
		c7.82-1.09,14.63-4.41,20.16-10.13c3.82-3.95,6.06-8.7,6.74-14.16c0.27-2.2,0.57-4.4,0.7-6.61c0.44-7.74-1.28-15.1-4.02-22.28
		c-3.19-8.37-7.27-16.32-11.7-24.08c-4.97-8.69-10.17-17.25-15.19-25.91c-4.85-8.36-9.04-17.02-11.43-26.43
		c-4.34-17.06-3.61-33.9,3.65-50.03c7.84-17.42,21.65-27.64,40.25-31.52c6.45-1.35,12.99-1.12,19.51-1.07c0.18,0,0.35,0.11,0.8,0.25
		c0,8.53,0,17.13,0,25.96c-0.76,0.04-1.42,0.09-2.09,0.12c-3.23,0.12-6.49-0.03-9.67,0.4c-8.15,1.09-15.29,4.41-21.08,10.36
		c-3.84,3.95-5.81,8.76-6.73,14.18c-1.88,11.12,0.39,21.52,4.82,31.65c3.77,8.61,8.19,16.87,12.9,24.99
		c3.95,6.79,8.11,13.46,12.07,20.25c4.13,7.07,7.69,14.42,10.32,22.19c3.74,11.04,4.93,22.34,3.75,33.93
		c-0.82,8.01-2.59,15.75-6.1,23.02c-8.07,16.72-21.29,26.85-39.43,30.62c-3.67,0.76-7.38,1.12-11.14,1.1
		C165.2,314.33,162.29,314.35,159.12,314.35z"/>
	<path class="st2" d="M99.09,287.83c12.68,0,25.14,0,37.53,0c0.46,1.73,0.51,24.52,0.09,26.46c-21,0-42.02,0-63.16,0
		c0-79.63,0-159.16,0-238.81c8.52,0,16.92,0,25.53,0C99.09,146.28,99.09,216.94,99.09,287.83z"/>
</g>
<g>
	<g>
		<path class="st3" d="M170.51,197.92c-30.33,0-60.66,0-91,0c-6.89,0-7.8-0.84-7.87-7.9c-0.08-8.12-0.02-16.25-0.02-24.37
			c0-12.44,0-24.88,0-37.32c0-8.2,3.28-13.39,11.27-15.49c9.63-2.53,19.43-4.65,29.28-6.09c27.28-3.97,54.75-5.48,82.3-4.59
			c20.37,0.65,40.77,1.82,60.19,8.98c20.87,7.7,38.4,19.76,50.11,39.25c7.86,13.07,11,27.35,11.23,42.41
			c0.11,7.23,0.02,14.47,0.02,21.71c0,5.53-4,7.67-8.97,4.71c-1.28-0.76-2.36-1.9-3.43-2.97c-11.87-11.78-26.2-18.11-42.87-18.25
			C230.67,197.75,200.59,197.92,170.51,197.92z M260.82,182.84c10.79,0,21.58,0.03,32.37-0.02c3.67-0.01,4.93-1.47,3.67-4.66
			c-5.58-14.23-13.14-27.1-25.6-36.56c-12.94-9.83-27.91-11.14-43.36-10.5c-2.96,0.12-3.27,2.15-3.27,4.54
			c0.04,14.09,0.07,28.19-0.02,42.28c-0.02,3.55,1.33,5.01,4.96,4.96C240,182.75,250.41,182.84,260.82,182.84z M115.33,182.64
			c7.73,0,15.47,0.02,23.2-0.01c4.62-0.02,5.39-0.77,5.39-5.22c0.02-13.7,0.02-27.39,0-41.09c-0.01-4.56-0.67-5.24-5.32-5.25
			c-15.34-0.02-30.69-0.02-46.03,0c-4.41,0.01-5.11,0.7-5.12,5.05c-0.02,13.95,0.08,27.9-0.07,41.85c-0.04,3.57,1.44,4.72,4.73,4.69
			C99.86,182.59,107.6,182.64,115.33,182.64z M184.3,130.86c-7.73,0-15.47,0.05-23.2-0.03c-2.94-0.03-4.58,0.99-4.57,4.13
			c0.02,14.33,0.03,28.65,0,42.98c-0.01,2.81,1.12,4.12,4.09,4.1c15.59-0.08,31.18-0.06,46.77-0.02c3.15,0.01,4.67-1.31,4.66-4.53
			c-0.04-14.07-0.05-28.15,0.01-42.22c0.01-3.24-1.33-4.52-4.58-4.46C199.77,130.95,192.04,130.86,184.3,130.86z"/>
		<path class="st3" d="M170.67,214.04c29.7,0,59.4-0.04,89.09,0.02c13.25,0.02,24.97,4.41,34.27,13.85
			c5.83,5.91,12.06,9.24,20.53,8.37c4.39-0.45,5.95,1.42,6.01,5.82c0.06,5.08,0.07,10.16,0,15.23c-0.07,4.91-2.11,6.91-6.94,6.93
			c-5.71,0.03-11.42-0.06-17.13,0.03c-2.66,0.04-3.82-0.85-3.99-3.7c-1.04-17.86-13.32-31.16-31.01-32.67
			c-19.76-1.69-34.98,13.51-36.13,30.77c-0.35,5.2-0.66,5.58-5.77,5.58c-21.58,0-43.15-0.07-64.73,0.07
			c-3.52,0.02-4.74-0.93-5.02-4.62c-1.33-17.54-14.59-30.62-31.94-31.95c-17.29-1.32-34.4,14.04-35.01,31.42
			c-0.17,4.74-0.51,5.13-5.39,5.05c-2.81-0.04-6.3,1.01-7.8-2.35c-1.54-3.46-1.36-7.09,0.84-10.53c0.75-1.17,1.02-2.83,1.04-4.27
			c0.09-8.76,0.04-17.52,0.05-26.28c0.01-5.58,1.6-7.14,7.28-7.14c30.59,0,61.17,0,91.76,0
			C170.67,213.81,170.67,213.92,170.67,214.04z"/>
		<path class="st3" d="M259.56,242.93c12.68-0.04,21.96,9.36,22.17,22.44c0.18,11.73-10.39,22.44-22.19,22.46
			c-12.04,0.03-22.56-10.18-22.63-21.95C236.83,253.03,246.77,242.97,259.56,242.93z M270.94,265.51
			c0.11-5.63-5.4-11.12-11.23-11.19c-5.77-0.06-10.93,4.88-11.19,10.71c-0.26,5.71,5.14,11.36,10.92,11.43
			C265.26,276.54,270.83,271.23,270.94,265.51z"/>
		<path class="st3" d="M117.06,242.93c12.41,0,21.9,9.66,21.91,22.31c0.01,12.05-10.1,22.14-22.3,22.26
			c-11.94,0.12-22.34-10.22-22.34-22.2C94.33,252.44,104,242.93,117.06,242.93z M105.74,265.38c0.01,6.11,5.14,11.22,11.13,11.09
			c5.87-0.13,11.01-5.17,11.11-10.89c0.1-6-5.38-11.36-11.51-11.25C110.61,254.42,105.73,259.45,105.74,265.38z"/>
	</g>
</g>
</svg>
