<?xml version="1.0" encoding="utf-8"?>
<!-- Generator: Adobe Illustrator 28.3.0, SVG Export Plug-In . SVG Version: 6.00 Build 0)  -->
<svg version="1.1" id="Layer_1" xmlns="http://www.w3.org/2000/svg" xmlns:xlink="http://www.w3.org/1999/xlink" x="0px" y="0px"
	 viewBox="0 0 389.9 390.3" style="enable-background:new 0 0 389.9 390.3;" xml:space="preserve">
<style type="text/css">
	.st0{fill:#ED1C2D;}
	.st1{fill:#FFFFFF;}
</style>
<rect y="0" class="st0" width="390" height="390"/>
<g>
	<g>
		<path class="st1" d="M173.5,197.5c-26.6,0-53.2,0-79.9,0c-6,0-6.8-0.7-6.9-6.9c-0.1-7.1,0-14.3,0-21.4c0-10.9,0-21.8,0-32.8
			c0-7.2,2.9-11.8,9.9-13.6c8.5-2.2,17.1-4.1,25.7-5.3c23.9-3.5,48.1-4.8,72.2-4c17.9,0.6,35.8,1.6,52.8,7.9
			c18.3,6.8,33.7,17.3,44,34.4c6.9,11.5,9.7,24,9.9,37.2c0.1,6.3,0,12.7,0,19.1c0,4.9-3.5,6.7-7.9,4.1c-1.1-0.7-2.1-1.7-3-2.6
			c-10.4-10.3-23-15.9-37.6-16C226.3,197.4,199.9,197.5,173.5,197.5z M252.7,184.3c9.5,0,18.9,0,28.4,0c3.2,0,4.3-1.3,3.2-4.1
			c-4.9-12.5-11.5-23.8-22.5-32.1c-11.4-8.6-24.5-9.8-38.1-9.2c-2.6,0.1-2.9,1.9-2.9,4c0,12.4,0.1,24.7,0,37.1
			c0,3.1,1.2,4.4,4.4,4.4C234.5,184.2,243.6,184.3,252.7,184.3z M125,184.1c6.8,0,13.6,0,20.4,0c4.1,0,4.7-0.7,4.7-4.6
			c0-12,0-24,0-36.1c0-4-0.6-4.6-4.7-4.6c-13.5,0-26.9,0-40.4,0c-3.9,0-4.5,0.6-4.5,4.4c0,12.2,0.1,24.5-0.1,36.7
			c0,3.1,1.3,4.1,4.2,4.1C111.5,184.1,118.2,184.1,125,184.1z M185.6,138.7c-6.8,0-13.6,0-20.4,0c-2.6,0-4,0.9-4,3.6
			c0,12.6,0,25.1,0,37.7c0,2.5,1,3.6,3.6,3.6c13.7-0.1,27.4-0.1,41,0c2.8,0,4.1-1.1,4.1-4c0-12.3,0-24.7,0-37.1c0-2.8-1.2-4-4-3.9
			C199.1,138.8,192.4,138.7,185.6,138.7z"/>
		<path class="st1" d="M173.6,211.7c26.1,0,52.1,0,78.2,0c11.6,0,21.9,3.9,30.1,12.2c5.1,5.2,10.6,8.1,18,7.3
			c3.9-0.4,5.2,1.2,5.3,5.1c0.1,4.5,0.1,8.9,0,13.4c-0.1,4.3-1.9,6.1-6.1,6.1c-5,0-10-0.1-15,0c-2.3,0-3.4-0.7-3.5-3.2
			c-0.9-15.7-11.7-27.3-27.2-28.7c-17.3-1.5-30.7,11.9-31.7,27c-0.3,4.6-0.6,4.9-5.1,4.9c-18.9,0-37.9-0.1-56.8,0.1
			c-3.1,0-4.2-0.8-4.4-4.1c-1.2-15.4-12.8-26.9-28-28c-15.2-1.2-30.2,12.3-30.7,27.6c-0.1,4.2-0.4,4.5-4.7,4.4
			c-2.5,0-5.5,0.9-6.8-2.1c-1.4-3-1.2-6.2,0.7-9.2c0.7-1,0.9-2.5,0.9-3.7c0.1-7.7,0-15.4,0-23.1c0-4.9,1.4-6.3,6.4-6.3
			c26.8,0,53.7,0,80.5,0C173.6,211.5,173.6,211.6,173.6,211.7z"/>
		<path class="st1" d="M251.6,237.1c11.1,0,19.3,8.2,19.5,19.7c0.2,10.3-9.1,19.7-19.5,19.7c-10.6,0-19.8-8.9-19.9-19.3
			C231.7,245.9,240.4,237.1,251.6,237.1z M261.6,256.9c0.1-4.9-4.7-9.8-9.9-9.8c-5.1-0.1-9.6,4.3-9.8,9.4c-0.2,5,4.5,10,9.6,10
			C256.6,266.6,261.5,261.9,261.6,256.9z"/>
		<path class="st1" d="M126.6,237.1c10.9,0,19.2,8.5,19.2,19.6c0,10.6-8.9,19.4-19.6,19.5c-10.5,0.1-19.6-9-19.6-19.5
			C106.6,245.4,115.1,237.1,126.6,237.1z M116.6,256.8c0,5.4,4.5,9.8,9.8,9.7c5.2-0.1,9.7-4.5,9.8-9.6c0.1-5.3-4.7-10-10.1-9.9
			C120.9,247.1,116.6,251.6,116.6,256.8z"/>
	</g>
</g>
</svg>
