<?xml version="1.0" encoding="utf-8"?>
<!-- Generator: Adobe Illustrator 28.3.0, SVG Export Plug-In . SVG Version: 6.00 Build 0)  -->
<svg version="1.1" id="Layer_1" xmlns="http://www.w3.org/2000/svg" xmlns:xlink="http://www.w3.org/1999/xlink" x="0px" y="0px"
	 viewBox="0 0 1366 548" style="enable-background:new 0 0 1366 548;" xml:space="preserve">
<path d="M366.09,319.33c-34.79-0.13-65.92-5.59-93.62-23.71c-14.81-9.69-27.62-21.48-34.03-38.66
	c-7.66-20.54,1.23-33.87,23.09-35.36c23.93-1.63,45.24,6.65,66.26,16.56c18.08,8.52,35.95,17.73,54.63,24.69
	c22.89,8.52,46.11,8.67,67.96-4.51c9.67-5.83,16.93-13.83,20.74-24.6c4.12-11.64-0.48-18.7-12.79-19.65
	c-15-1.16-29.04,3.33-42.99,7.87c-21.51,7.01-43.23,11.86-65.84,6.42c-33.38-8.04-58.35-25.99-66.55-61.06
	c-5.59-23.88,2.79-44.92,16.87-64.08c2.6-3.53,5.44-7.09,7.07-11.09c3.5-8.53-0.89-15.97-9.97-17.61
	c-11.31-2.05-20.77,1.86-28.3,10.08c-5.02,5.47-9.16,11.74-13.88,17.5c-14.83,18.1-32.98,29.75-57.39,26.82
	c-17.77-2.14-29.39-13.12-36.34-29.14c-6.52-15.05-3.06-28.62,6.86-41.06c11.55-14.47,26.84-23.59,43.68-30.3
	c27.61-11.01,56.19-16.37,86.02-13.86c41.52,3.49,60.9,35.88,44.13,74.05c-4.12,9.37-8.5,18.63-13.05,27.8
	c-15.41,31.03,3.37,59.65,25.14,71.23c19.51,10.38,38.9,10.53,56.99-3.54c11.57-9,22.32-19.14,34.32-27.5
	c8.85-6.17,18.67-11.62,28.85-15.02c14.25-4.75,25.17,0.02,32.61,13.08c12.26,21.49,14.98,44.87,10.68,68.95
	c-6.73,37.72-29.11,63.13-63.64,78.29C425.02,314.47,394.75,318.88,366.09,319.33z"/>
<path d="M29.87,363.27c9.48-18.28,20.12-24.08,25.56-26.75c12.66-6.22,26.24-3.61,35.55,6.93c8.1,9.17,12.22,20.19,14.5,32.04
	c4.38,22.69,0.86,44.84-3.51,67.15c-2.75,14.05-4.49,28.53-4.57,42.83c-0.1,18.81,14.88,26.77,31.32,17.25
	c14.49-8.39,21.27-22.1,19.14-38.23c-1.77-13.41-5.91-26.75-10.73-39.46c-16.29-42.92-18.81-86.19-4.03-129.78
	c7.1-20.94,20.02-37.27,42.77-43.32c19.98-5.31,43.97,4.44,54.59,22.18c8.71,14.55,6.32,32.09-6.6,46.24
	c-8.79,9.63-18.23,18.69-26.69,28.59c-10.52,12.31-18.86,26.01-22.05,42.22c-7.75,39.36,16.6,65.01,56.09,57.58
	c15.36-2.89,29.88-10.05,44.99-14.58c12.63-3.78,25.42-8.44,38.37-9.37c24.64-1.77,44.04,14.55,49.18,38.62
	c5.24,24.56-5.53,45.75-28.56,55.78c-23.49,10.24-46.62,7.04-68.87-3.49c-12.13-5.74-23.29-13.52-34.98-20.22
	c-8.06-4.62-16.03-9.52-24.48-13.34c-14.87-6.72-28.87-4.21-40.71,6.86c-5.89,5.51-11.72,11.65-15.66,18.59
	c-19.38,34.17-66.21,34.72-92.7,12.84c-20.56-16.99-29.5-38-35.97-62.29C20.85,454.41,8.32,404.85,29.87,363.27z"/>
<path d="M683.04,389.38c0.53,33.03-7.11,63.78-26.39,90.95c-17.05,24.03-40.14,38.64-69.83,41.2c-20.29,1.75-38.99-3.66-54.76-16.7
	c-43.73-36.16-66.14-82.74-65.53-139.59c0.24-22.26,8.25-42.37,22.81-59.49c19.57-23.01,48.99-24.79,70.72-3.85
	c5.62,5.42,10.38,11.25,14.33,17.44c3.17,4.96,14.87,24.71,15.96,54.04c0.47,12.64,1.06,28.63-8.46,41.58
	c-2.32,3.15-7.07,9.38-15.46,12.09c-4.08,1.32-8.57,1.64-13.47,0.83c-11.35-1.89-16.55-10.68-19.43-20.69
	c-2.44-8.47-3.42-17.36-5.85-25.84c-1.44-5.04-3.75-10.13-6.86-14.33c-8.08-10.9-21.03-9.27-26.57,3.09
	c-5.87,13.11-4.42,26.34-0.03,39.5c10.33,30.98,39.68,53.4,70.41,53.82c37.44,0.52,64.11-30.37,56.23-67.06
	c-3.83-17.82-10.64-35.08-17.08-52.23c-7.11-18.94-12.96-37.84-10.19-58.43c3.04-22.55,18.69-31.62,39.71-22.72
	c12.94,5.48,20.97,15.88,27.08,28C675.55,321.13,683.01,353.64,683.04,389.38z"/>
<path d="M529.1,24.51c42.26,1.22,83.01,14.14,115.04,48.13c32.14,34.11,41.32,91.64,20.98,130.72
	c-6.01,11.55-14.41,20.78-28.31,22.47c-14.55,1.78-24.6-3.72-28.21-17.92c-4.22-16.6-6.78-33.68-9.11-50.69
	c-3.09-22.57-3.68-45.72-13.24-66.81c-2.55-5.63-6.06-17.62-16.94-25.2c-2.95-2.06-10.56-7.36-18.49-4.96
	c-0.79,0.24-7.22,2.29-9.26,8.03c-0.78,2.2-0.85,4.71-0.05,7.46c1.71,5.87,4.64,11.66,8.17,16.69
	c17.02,24.25,30.74,49.95,35.94,79.47c3.28,18.64,2.61,37.14-4.08,55.04c-3.08,8.23-7.86,15.33-16.23,19.27
	c-13.08,6.16-26.92,0.18-28.79-14.03c-1.43-10.87-0.58-22.26,0.78-33.23c3.94-31.91,3.59-63.29-9.9-93.17
	c-3-6.65-7.42-13.05-12.49-18.3c-14.52-15.06-33.24-16.34-48.45-1.99c-9.84,9.28-17.39,21.04-25.61,31.95
	c-8.11,10.76-15.17,22.36-23.82,32.65c-8.14,9.67-19.28,15.01-31.98,17.03c-26.64,4.22-41.96-17.25-38.11-40.81
	c2.64-16.2,11.39-29.33,22.49-41.01C388.8,64.87,413.15,52.3,438.78,42C466.69,30.79,495.76,24.9,529.1,24.51z"/>
<path d="M20.09,261.93c0.76-19.19,6.87-36.97,13.17-54.39c12.28-33.96,9.48-66.59-4.86-99.12c-4.57-10.36-8.08-21.3-10.9-32.28
	c-4.35-16.96-0.19-32.07,13.54-43.41c14.1-11.65,30.15-13.99,47.12-7.01c23.19,9.53,38.32,27.76,49.49,49.14
	c6.08,11.63,9.82,24.55,14.04,37.08c3.78,11.22,9.51,20.1,16.98,26.81c2.73,2.46,15.76,14.45,33.99,15.05
	c20.1,0.65,26.8-13.16,49.57-10.69c8.89,0.97,13.16,3.65,14.79,4.78c9.85,6.86,13.79,19.96,12.5,29.99
	c-2.51,19.49-15.5,31.27-31.76,39.82c-48.27,25.37-106.77-1.66-121.17-55.95c-4.05-15.26-6.83-30.88-11.23-46.03
	c-1.96-6.75-5.64-13.45-10.1-18.9c-3.62-4.41-9.23-7.65-14.57-10.06c-5.47-2.47-11.94-1.06-15.06,3.93
	c-2.38,3.8-3.84,10.21-2.28,14.09c6.49,16.16,14.23,31.81,21.59,47.62c11.08,23.81,23.43,47.15,27.98,73.43
	c3.32,19.13,3.2,38.06-4.81,56.2c-8.03,18.19-22.05,29.06-41.59,32.55c-18.27,3.26-35.9-8.31-41.9-28.08
	C22.22,278.58,21.55,270.14,20.09,261.93z"/>
<path d="M281.22,332.27c27.09,0.31,49.87,10.34,67.83,30.69c7.24,8.2,14.46,16.5,20.76,25.41c18.3,25.9,41.7,44.69,71.85,55.24
	c13.86,4.85,26.91,11.68,37.58,22.23c9.58,9.48,14.91,20.68,13.76,34.45c-1.72,20.61-17.82,31.86-37.9,26.51
	c-23.7-6.31-40.2-22.39-53.34-41.68c-11.36-16.67-20.44-34.89-30.94-52.17c-5.89-9.7-11.86-19.54-19.15-28.17
	c-10.87-12.85-25.48-15.02-40.77-9.51c-9.8,3.53-18.96,8.82-28.42,13.28c-6.31,2.98-12.51,6.24-19,8.76
	c-19.41,7.54-39.91,1.16-49.64-15.16c-9.42-15.79-4.79-37.78,10.74-51.01C237.46,340.18,260.91,332.37,281.22,332.27z"/>
<path d="M422.23,405.02c-17.47-0.14-32.39-14.39-35.04-32.82c-2.57-17.86,7.87-35.91,23.55-40.75c11.93-3.68,24.69,0.92,31.3,12.38
	c8.85,15.33,9.38,31.52,1.91,47.53C439.68,400.52,432.12,405.55,422.23,405.02z"/>
<path d="M1040.02,231.01c-34.79,0.13-65.92,5.59-93.62,23.71c-14.81,9.69-27.62,21.48-34.03,38.66
	c-7.66,20.54,1.23,33.87,23.09,35.36c23.93,1.63,45.24-6.65,66.26-16.56c18.08-8.52,35.95-17.73,54.63-24.69
	c22.89-8.52,46.11-8.67,67.96,4.51c9.67,5.83,16.93,13.83,20.74,24.6c4.12,11.64-0.48,18.7-12.79,19.65
	c-15,1.16-29.04-3.33-42.99-7.87c-21.51-7.01-43.23-11.86-65.84-6.42c-33.38,8.04-58.35,25.99-66.55,61.06
	c-5.59,23.88,2.79,44.92,16.87,64.08c2.6,3.53,5.44,7.09,7.07,11.09c3.5,8.53-0.89,15.97-9.97,17.61
	c-11.31,2.05-20.77-1.86-28.3-10.08c-5.02-5.47-9.16-11.74-13.88-17.5c-14.83-18.1-32.98-29.75-57.39-26.82
	c-17.77,2.14-29.39,13.12-36.34,29.14c-6.52,15.05-3.06,28.62,6.86,41.06c11.55,14.47,26.84,23.59,43.68,30.3
	c27.61,11.01,56.19,16.37,86.02,13.86c41.52-3.49,60.9-35.88,44.13-74.05c-4.12-9.37-8.5-18.63-13.05-27.8
	c-15.41-31.03,3.37-59.65,25.14-71.23c19.51-10.38,38.9-10.53,56.99,3.54c11.57,9,22.32,19.14,34.32,27.5
	c8.85,6.17,18.67,11.62,28.85,15.02c14.25,4.75,25.17-0.02,32.61-13.08c12.26-21.49,14.98-44.87,10.68-68.95
	c-6.73-37.72-29.11-63.13-63.64-78.29C1098.96,235.87,1068.69,231.46,1040.02,231.01z"/>
<path d="M703.81,187.07c9.48,18.28,20.12,24.08,25.56,26.75c12.66,6.22,26.24,3.61,35.55-6.93c8.1-9.17,12.22-20.19,14.5-32.04
	c4.38-22.69,0.86-44.84-3.51-67.15c-2.75-14.05-4.49-28.53-4.57-42.83c-0.1-18.81,14.88-26.77,31.32-17.25
	c14.49,8.39,21.27,22.1,19.14,38.23c-1.77,13.41-5.91,26.75-10.73,39.46c-16.29,42.92-18.81,86.19-4.03,129.78
	c7.1,20.94,20.02,37.27,42.77,43.32c19.98,5.31,43.97-4.44,54.59-22.18c8.71-14.55,6.32-32.09-6.6-46.24
	c-8.79-9.63-18.23-18.69-26.69-28.59c-10.52-12.31-18.86-26.01-22.05-42.22c-7.75-39.36,16.6-65.01,56.09-57.58
	c15.36,2.89,29.88,10.05,44.99,14.58c12.63,3.78,25.42,8.44,38.37,9.37c24.64,1.77,44.04-14.55,49.18-38.62
	c5.24-24.56-5.53-45.75-28.56-55.78c-23.49-10.24-46.62-7.04-68.87,3.49c-12.13,5.74-23.29,13.52-34.98,20.22
	c-8.06,4.62-16.03,9.52-24.48,13.34c-14.87,6.72-28.87,4.21-40.71-6.86c-5.89-5.51-11.72-11.65-15.66-18.59
	c-19.38-34.17-66.21-34.72-92.7-12.84c-20.56,16.99-29.5,38-35.97,62.29C694.78,95.93,682.25,145.49,703.81,187.07z"/>
<path d="M1356.97,160.96c0.53-33.03-7.11-63.78-26.39-90.95c-17.05-24.03-40.14-38.64-69.83-41.2c-20.29-1.75-38.99,3.66-54.76,16.7
	c-43.73,36.16-66.14,82.74-65.53,139.59c0.24,22.26,8.25,42.37,22.81,59.49c19.57,23.01,48.99,24.79,70.72,3.85
	c5.62-5.42,10.38-11.25,14.33-17.44c3.17-4.96,14.87-24.71,15.96-54.04c0.47-12.64,1.06-28.63-8.46-41.58
	c-2.32-3.15-7.07-9.38-15.46-12.09c-4.08-1.32-8.57-1.64-13.46-0.83c-11.35,1.89-16.55,10.68-19.43,20.69
	c-2.44,8.47-3.42,17.36-5.85,25.84c-1.44,5.04-3.75,10.13-6.86,14.33c-8.08,10.9-21.03,9.27-26.57-3.09
	c-5.87-13.11-4.42-26.34-0.03-39.5c10.33-30.98,39.68-53.4,70.41-53.82c37.44-0.52,64.11,30.37,56.23,67.06
	c-3.83,17.82-10.64,35.08-17.08,52.23c-7.11,18.94-12.96,37.84-10.19,58.43c3.04,22.55,18.69,31.62,39.71,22.72
	c12.94-5.48,20.97-15.88,27.08-28C1349.49,229.21,1356.95,196.7,1356.97,160.96z"/>
<path d="M1203.03,525.83c42.26-1.22,83.01-14.14,115.04-48.13c32.14-34.11,41.32-91.64,20.98-130.72
	c-6.01-11.55-14.41-20.78-28.31-22.47c-14.55-1.78-24.6,3.72-28.21,17.92c-4.22,16.6-6.78,33.68-9.11,50.69
	c-3.09,22.57-3.68,45.72-13.24,66.81c-2.55,5.63-6.06,17.62-16.94,25.2c-2.95,2.06-10.56,7.36-18.49,4.96
	c-0.79-0.24-7.22-2.29-9.26-8.03c-0.78-2.2-0.85-4.71-0.05-7.46c1.71-5.87,4.64-11.66,8.17-16.69
	c17.02-24.25,30.74-49.95,35.94-79.47c3.28-18.64,2.61-37.14-4.08-55.04c-3.08-8.23-7.86-15.33-16.23-19.27
	c-13.08-6.16-26.92-0.18-28.79,14.03c-1.43,10.87-0.58,22.26,0.78,33.23c3.94,31.91,3.59,63.29-9.9,93.17
	c-3,6.65-7.42,13.05-12.49,18.3c-14.52,15.06-33.24,16.34-48.45,1.99c-9.84-9.28-17.39-21.04-25.61-31.95
	c-8.11-10.76-15.17-22.36-23.82-32.65c-8.14-9.67-19.28-15.01-31.98-17.03c-26.64-4.22-41.96,17.25-38.11,40.81
	c2.64,16.2,11.39,29.33,22.49,41.01c19.38,20.4,43.73,32.97,69.36,43.27C1140.62,519.55,1169.69,525.44,1203.03,525.83z"/>
<path d="M694.02,288.41c0.76,19.19,6.87,36.97,13.17,54.39c12.28,33.96,9.48,66.59-4.86,99.12c-4.57,10.36-8.08,21.3-10.9,32.28
	c-4.35,16.96-0.19,32.07,13.54,43.42c14.1,11.65,30.15,13.99,47.12,7.01c23.19-9.53,38.32-27.76,49.49-49.14
	c6.08-11.63,9.82-24.55,14.04-37.08c3.78-11.22,9.51-20.1,16.98-26.81c2.73-2.46,15.76-14.45,33.99-15.05
	c20.1-0.65,26.8,13.16,49.57,10.69c8.89-0.97,13.16-3.65,14.79-4.78c9.85-6.86,13.79-19.96,12.5-29.99
	c-2.51-19.49-15.5-31.27-31.76-39.82c-48.27-25.37-106.77,1.66-121.17,55.95c-4.05,15.26-6.83,30.88-11.23,46.03
	c-1.96,6.75-5.64,13.45-10.1,18.9c-3.62,4.41-9.23,7.65-14.57,10.06c-5.47,2.47-11.94,1.06-15.06-3.93
	c-2.38-3.8-3.84-10.21-2.28-14.09c6.49-16.16,14.23-31.81,21.59-47.62c11.08-23.81,23.43-47.15,27.98-73.43
	c3.32-19.13,3.2-38.06-4.81-56.2c-8.03-18.19-22.05-29.06-41.59-32.55c-18.27-3.26-35.9,8.31-41.9,28.08
	C696.16,271.76,695.48,280.2,694.02,288.41z"/>
<path d="M955.15,218.07c27.09-0.31,49.87-10.34,67.83-30.69c7.24-8.2,14.46-16.5,20.76-25.41c18.3-25.9,41.7-44.69,71.85-55.24
	c13.86-4.85,26.91-11.68,37.58-22.23c9.58-9.48,14.91-20.68,13.76-34.45c-1.72-20.61-17.82-31.86-37.9-26.51
	c-23.7,6.31-40.2,22.39-53.34,41.68c-11.36,16.67-20.44,34.89-30.94,52.17c-5.89,9.7-11.86,19.54-19.15,28.17
	c-10.87,12.85-25.48,15.02-40.77,9.51c-9.8-3.53-18.96-8.82-28.42-13.28c-6.31-2.98-12.51-6.24-19-8.76
	c-19.41-7.54-39.91-1.16-49.64,15.16c-9.42,15.79-4.79,37.78,10.74,51.01C911.4,210.16,934.84,217.97,955.15,218.07z"/>
<path d="M1096.17,145.32c-17.47,0.14-32.39,14.39-35.04,32.82c-2.57,17.86,7.87,35.91,23.55,40.75c11.93,3.68,24.69-0.92,31.3-12.38
	c8.85-15.33,9.38-31.52,1.91-47.53C1113.62,149.82,1106.06,144.79,1096.17,145.32z"/>
</svg>
