<?xml version="1.0" encoding="utf-8"?>
<!-- Generator: Adobe Illustrator 28.3.0, SVG Export Plug-In . SVG Version: 6.00 Build 0)  -->
<svg version="1.1" id="Layer_1" xmlns="http://www.w3.org/2000/svg" xmlns:xlink="http://www.w3.org/1999/xlink" x="0px" y="0px"
	 viewBox="0 0 389.89 390.28" style="enable-background:new 0 0 389.89 390.28;" xml:space="preserve">
<style type="text/css">
	.st0{fill:#ED1C2D;}
	.st1{fill:#FFFFFF;}
</style>
<rect class="st0" width="390" height="390"/>
<g>
	<path class="st1" d="M277.22,178.03c12.08,0,24.02,0,36.09,0c0,9.39,0,18.56,0,27.95c-0.81,0.06-1.6,0.16-2.39,0.16
		c-10.34,0.01-20.67,0.01-31.01,0.01c-0.82,0-1.64,0-2.27,0c-0.22,0.21-0.27,0.25-0.31,0.3c-0.04,0.05-0.11,0.09-0.11,0.15
		c-0.05,0.5-0.13,1.01-0.13,1.51c0.01,26.32,0.02,52.63,0.04,78.95c0,0.18,0.11,0.35,0.23,0.74c12.74,0,25.53,0,38.25,0
		c0.48,1.52,0.61,23.74,0.22,26.32c-1.38,0.36-61.31,0.49-64.2,0.15c-0.04-0.04-0.08-0.08-0.12-0.13c-0.04-0.05-0.11-0.1-0.11-0.15
		c-0.04-78.69-0.08-157.38-0.12-236.07c0-0.57,0.01-1.14,0.05-1.71c0.01-0.18,0.12-0.35,0.18-0.5c1.49-0.41,62.27-0.47,64.21-0.08
		c0.37,1.36,0.49,23.21,0.1,26.02c-4.24,0.05-8.52,0.02-12.81,0.02c-4.25,0.01-8.5,0-12.75,0c-4.3,0-8.59,0-13.03,0
		C277.22,127.17,277.22,152.49,277.22,178.03z"/>
	<path class="st1" d="M159.12,314.35c0-8.85,0-17.45,0-26.27c0.7-0.03,1.37-0.07,2.04-0.1c3.29-0.12,6.62,0.04,9.86-0.42
		c7.82-1.09,14.63-4.41,20.16-10.13c3.82-3.95,6.06-8.7,6.74-14.16c0.27-2.2,0.57-4.4,0.7-6.61c0.44-7.74-1.28-15.1-4.02-22.28
		c-3.19-8.37-7.27-16.32-11.7-24.08c-4.97-8.69-10.17-17.25-15.19-25.91c-4.85-8.36-9.04-17.02-11.43-26.43
		c-4.34-17.06-3.61-33.9,3.65-50.03c7.84-17.42,21.65-27.64,40.25-31.52c6.45-1.35,12.99-1.12,19.51-1.07c0.18,0,0.35,0.11,0.8,0.25
		c0,8.53,0,17.13,0,25.96c-0.76,0.04-1.42,0.09-2.09,0.12c-3.23,0.12-6.49-0.03-9.67,0.4c-8.15,1.09-15.29,4.41-21.08,10.36
		c-3.84,3.95-5.81,8.76-6.73,14.18c-1.88,11.12,0.39,21.52,4.82,31.65c3.77,8.61,8.19,16.87,12.9,24.99
		c3.95,6.79,8.11,13.46,12.07,20.25c4.13,7.07,7.69,14.42,10.32,22.19c3.74,11.04,4.93,22.34,3.75,33.93
		c-0.82,8.01-2.59,15.75-6.1,23.02c-8.07,16.72-21.29,26.85-39.43,30.62c-3.67,0.76-7.38,1.12-11.14,1.1
		C165.2,314.33,162.29,314.35,159.12,314.35z"/>
	<path class="st1" d="M99.09,287.83c12.68,0,25.14,0,37.53,0c0.46,1.73,0.51,24.52,0.09,26.46c-21,0-42.02,0-63.16,0
		c0-79.63,0-159.16,0-238.81c8.52,0,16.92,0,25.53,0C99.09,146.28,99.09,216.94,99.09,287.83z"/>
</g>
</svg>
