<?xml version="1.0" encoding="utf-8"?>
<!-- Generator: Adobe Illustrator 28.3.0, SVG Export Plug-In . SVG Version: 6.00 Build 0)  -->
<svg version="1.1" id="Layer_1" xmlns="http://www.w3.org/2000/svg" xmlns:xlink="http://www.w3.org/1999/xlink" x="0px" y="0px"
	 viewBox="0 0 389.9 390.3" style="enable-background:new 0 0 389.9 390.3;" xml:space="preserve">
<style type="text/css">
	.st0{fill:#000000;}
	.st1{fill:#FFFFFF;}
</style>
<rect y="0" class="st0" width="390" height="390"/>
<g>
	<path class="st1" d="M263.3,180.9c10,0,20,0,30,0c0,7.8,0,15.4,0,23.2c-0.7,0-1.3,0.1-2,0.1c-8.6,0-17.2,0-25.8,0
		c-0.7,0-1.4,0-1.9,0c-0.2,0.2-0.2,0.2-0.3,0.2l-0.1,0.1c0,0.4-0.1,0.8-0.1,1.3c0,21.9,0,43.8,0,65.6c0,0.1,0.1,0.3,0.2,0.6
		c10.6,0,21.2,0,31.8,0c0.4,1.3,0.5,19.7,0.2,21.9c-1.1,0.3-51,0.4-53.4,0.1l-0.1-0.1l-0.1-0.1c0-65.4-0.1-130.8-0.1-196.3
		c0-0.5,0-0.9,0-1.4c0-0.1,0.1-0.3,0.1-0.4c1.2-0.3,51.8-0.4,53.4-0.1c0.3,1.1,0.4,19.3,0.1,21.6c-3.5,0-7.1,0-10.6,0s-7.1,0-10.6,0
		c-3.6,0-7.1,0-10.8,0C263.3,138.6,263.3,159.6,263.3,180.9z"/>
	<path class="st1" d="M165.1,294.2c0-7.4,0-14.5,0-21.8c0.6,0,1.1-0.1,1.7-0.1c2.7-0.1,5.5,0,8.2-0.3c6.5-0.9,12.2-3.7,16.8-8.4
		c3.2-3.3,5-7.2,5.6-11.8c0.2-1.8,0.5-3.7,0.6-5.5c0.4-6.4-1.1-12.6-3.3-18.5c-2.7-7-6-13.6-9.7-20c-4.1-7.2-8.5-14.3-12.6-21.5
		c-4-7-7.5-14.1-9.5-22c-3.6-14.2-3-28.2,3-41.6c6.5-14.5,18-23,33.5-26.2c5.4-1.1,10.8-0.9,16.2-0.9c0.1,0,0.3,0.1,0.7,0.2
		c0,7.1,0,14.2,0,21.6c-0.6,0-1.2,0.1-1.7,0.1c-2.7,0.1-5.4,0-8,0.3c-6.8,0.9-12.7,3.7-17.5,8.6c-3.2,3.3-4.8,7.3-5.6,11.8
		c-1.6,9.2,0.3,17.9,4,26.3c3.1,7.2,6.8,14,10.7,20.8c3.3,5.6,6.7,11.2,10,16.8c3.4,5.9,6.4,12,8.6,18.4c3.1,9.2,4.1,18.6,3.1,28.2
		c-0.7,6.7-2.2,13.1-5.1,19.1c-6.7,13.9-17.7,22.3-32.8,25.5c-3.1,0.6-6.1,0.9-9.3,0.9C170.2,294.2,167.8,294.2,165.1,294.2z"/>
	<path class="st1" d="M115.2,272.2c10.5,0,20.9,0,31.2,0c0.4,1.4,0.4,20.4,0.1,22c-17.5,0-34.9,0-52.5,0c0-66.2,0-132.3,0-198.5
		c7.1,0,14.1,0,21.2,0C115.2,154.5,115.2,213.2,115.2,272.2z"/>
</g>
</svg>
