<?xml version="1.0" encoding="UTF-8"?>
<svg id="Layer_1" data-name="Layer 1" xmlns="http://www.w3.org/2000/svg" version="1.1" viewBox="0 0 841.9 841.9">
  <defs>
    <style>
      .cls-7 {
        fill: #fff;
        stroke-width: 0px;
      }
    </style>
  </defs>
  <path class="cls-7" d="M571.8,252c-1.8,3.9-3.5,7.8-5.3,11.8-41.2,90.1-82.4,180.1-123.7,270.2-8.3,18.2-16.7,36.4-25.1,54.6-.4.9-1.4,1.8-2.3,2-1.4.3-2.7.2-3.7-1.5-14-24.9-28.1-49.7-42.1-74.5-.2-.3-.3-.6-.5-1,67.4-87.2,134.8-174.5,202.2-261.7.2-.1.3,0,.5.1Z"/>
  <path class="cls-7" d="M567,326.3c1.6,11.7,3.1,22.9,4.7,34,2.6,18.8,5.2,37.7,7.9,56.5,2.9,20.2,5.6,40.5,8.7,60.7,4.5,28.8,9.4,57.5,13.8,86.2,1,6.7,4.8,10.5,10.4,13.2,7.9,3.9,16.3,5.2,25,5.4,4.8.1,9.5,0,14.5,0v8h-158.8v-8h3.4c8.9.1,17.9.3,26.6-2.4,6.5-2,12.6-4.9,17.7-9.6,2.7-2.4,4.4-5.1,4-8.9-.9-9.6-1.3-19.2-2.4-28.7-2.5-20.9-5.1-41.7-7.9-62.6-2.5-18.9-5.4-37.8-8-56.8-.2-1.1.1-2.5.6-3.5,12.8-27,25.6-53.9,38.5-80.9.2-.6.6-1.4,1.3-2.6Z"/>
  <path class="cls-7" d="M471.9,259c-.3.8-.7,1.6-1,2.4-36.1,76.8-72.2,153.7-108.4,230.5-.5,1.1-1.5,2.1-2.5,2.6-1.4.7-2.1-.6-2.8-1.7-8.7-14.4-17.4-28.7-26.1-43.1q-3.1-5.2.6-10c46.1-59.7,92.3-119.4,138.4-179,.5-.6,1-1.2,1.5-1.8.1,0,.2.1.3.1Z"/>
  <path class="cls-7" d="M263.3,334.6c3,6.1,5.9,12.3,8.9,18.4.7,1.4,1.1,2.8,2,4,3.3,4.9,3.2,10.1,2.5,15.8-2.5,21.4-4.8,42.8-7,64.2-2.2,21.2-4.5,42.3-6.3,63.5-1.8,21.6-2.9,43.3-4.3,64.9-.2,3.3,1,5.6,3.2,8,6,6.5,13.4,9.2,22,9.1h14.9v7.8h-109.5v-7.8c3.3,0,6.6.3,9.8-.1,5.4-.6,10.9-1,16-2.5,10.8-3.2,17.9-9.5,19.3-21.8,2.7-23.5,6.4-47,9.5-70.5,3.3-25,6.3-50,9.3-75,2.6-21.8,5.2-43.6,7.7-65.4.5-4.2,1-8.4,1.5-12.7.2.2.3.1.5.1Z"/>
  <path class="cls-7" d="M382.5,276.1c-2.2,4.7-4.4,9.5-6.6,14.2-19.3,40.8-38.5,81.6-57.8,122.3-.4.8-1.2,1.9-1.9,1.8-.7,0-1.6-1-2.1-1.7-5.3-8.2-10.4-16.5-15.7-24.7-1-1.6-1-2.6.2-4.1,24.5-31.6,48.9-63.3,73.4-94.9,3.4-4.4,6.7-8.7,10.1-13.1.1.1.3.1.4.2Z"/>
</svg>
