<?xml version="1.0" encoding="utf-8"?>
<!-- Generator: Adobe Illustrator 28.3.0, SVG Export Plug-In . SVG Version: 6.00 Build 0)  -->
<svg version="1.1" id="Layer_1" xmlns="http://www.w3.org/2000/svg" xmlns:xlink="http://www.w3.org/1999/xlink" x="0px" y="0px"
	 viewBox="0 0 841.9 841.9" style="enable-background:new 0 0 841.9 841.9;" xml:space="preserve">
<style type="text/css">
	.st4{fill:#440595;}
	.st5{fill:#FFFFFF;}
</style>
<rect class="st4" width="842" height="842"/>
<g>
	<path class="st1" d="M571.8,252c-1.8,3.9-3.5,7.8-5.3,11.8c-41.2,90.1-82.4,180.1-123.7,270.2c-8.3,18.2-16.7,36.4-25.1,54.6
		c-0.4,0.9-1.4,1.8-2.3,2c-1.4,0.3-2.7,0.2-3.7-1.5c-14-24.9-28.1-49.7-42.1-74.5c-0.2-0.3-0.3-0.6-0.5-1
		c67.4-87.2,134.8-174.5,202.2-261.7C571.5,251.8,571.6,251.9,571.8,252z"/>
	<path class="st5" d="M567,326.3c1.6,11.7,3.1,22.9,4.7,34c2.6,18.8,5.2,37.7,7.9,56.5c2.9,20.2,5.6,40.5,8.7,60.7
		c4.5,28.8,9.4,57.5,13.8,86.2c1,6.7,4.8,10.5,10.4,13.2c7.9,3.9,16.3,5.2,25,5.4c4.8,0.1,9.5,0,14.5,0c0,2.8,0,5.4,0,8
		c-53,0-105.8,0-158.8,0c0-2.6,0-5.1,0-8c1.1,0,2.2,0,3.4,0c8.9,0.1,17.9,0.3,26.6-2.4c6.5-2,12.6-4.9,17.7-9.6
		c2.7-2.4,4.4-5.1,4-8.9c-0.9-9.6-1.3-19.2-2.4-28.7c-2.5-20.9-5.1-41.7-7.9-62.6c-2.5-18.9-5.4-37.8-8-56.8
		c-0.2-1.1,0.1-2.5,0.6-3.5c12.8-27,25.6-53.9,38.5-80.9C565.9,328.3,566.3,327.5,567,326.3z"/>
	<path class="st5" d="M471.9,259c-0.3,0.8-0.7,1.6-1,2.4c-36.1,76.8-72.2,153.7-108.4,230.5c-0.5,1.1-1.5,2.1-2.5,2.6
		c-1.4,0.7-2.1-0.6-2.8-1.7c-8.7-14.4-17.4-28.7-26.1-43.1c-3.1-5.2-3.1-5.2,0.6-10C377.8,380,424,320.3,470.1,260.7
		c0.5-0.6,1-1.2,1.5-1.8C471.7,258.9,471.8,259,471.9,259z"/>
	<path class="st5" d="M263.3,334.6c3,6.1,5.9,12.3,8.9,18.4c0.7,1.4,1.1,2.8,2,4c3.3,4.9,3.2,10.1,2.5,15.8
		c-2.5,21.4-4.8,42.8-7,64.2c-2.2,21.2-4.5,42.3-6.3,63.5c-1.8,21.6-2.9,43.3-4.3,64.9c-0.2,3.3,1,5.6,3.2,8c6,6.5,13.4,9.2,22,9.1
		c4.9,0,9.8,0,14.9,0c0,2.7,0,5.1,0,7.8c-36.4,0-72.9,0-109.5,0c0-2.5,0-5,0-7.8c3.3,0,6.6,0.3,9.8-0.1c5.4-0.6,10.9-1,16-2.5
		c10.8-3.2,17.9-9.5,19.3-21.8c2.7-23.5,6.4-47,9.5-70.5c3.3-25,6.3-50,9.3-75c2.6-21.8,5.2-43.6,7.7-65.4c0.5-4.2,1-8.4,1.5-12.7
		C263,334.7,263.1,334.6,263.3,334.6z"/>
	<path class="st5" d="M382.5,276.1c-2.2,4.7-4.4,9.5-6.6,14.2c-19.3,40.8-38.5,81.6-57.8,122.3c-0.4,0.8-1.2,1.9-1.9,1.8
		c-0.7,0-1.6-1-2.1-1.7c-5.3-8.2-10.4-16.5-15.7-24.7c-1-1.6-1-2.6,0.2-4.1c24.5-31.6,48.9-63.3,73.4-94.9
		c3.4-4.4,6.7-8.7,10.1-13.1C382.2,276,382.4,276,382.5,276.1z"/>
</g>
</svg>
