<?xml version="1.0" encoding="UTF-8"?>
<svg id="Layer_1" data-name="Layer 1" xmlns="http://www.w3.org/2000/svg" version="1.1" viewBox="0 0 841.9 841.9">
  <defs>
    <style>
      .cls-8 {
        fill: #fff;
        stroke-width: 0px;
      }
    </style>
  </defs>
  <path class="cls-8" d="M489.1,632.1c10.3-9.8,21.7-19.2,31.4-30.1,27.4-30.6,43.7-67.1,52.8-106.8,10.4-45.8,11.9-91,3.1-135.3-5.3-26.3-13.4-47.7-19.7-62.1-6.4-14.5-13.3-29.9-26.8-47.1-12.6-16.2-25.6-27.1-32.3-32.3-4.8-3.7-9-6.7-12.2-8.8,3.8,1.1,9,2.7,15.1,5,0,0,20.3,7.8,39.3,21,28.1,19.4,50,45.7,66.9,77.1,22.7,42.2,28.8,87.4,23.6,134.5-4.5,40.3-16.8,77.7-40.5,110.8-14.2,19.9-28.8,32.6-33.9,36.9-25.3,21.3-50.6,31.8-66.8,37.2Z"/>
  <path class="cls-8" d="M352.8,633c-10.3-9.8-21.7-19.2-31.4-30.1-27.4-30.6-43.7-67.1-52.8-106.8-10.4-45.8-11.9-91-3.1-135.3,5.3-26.3,13.4-47.7,19.7-62.1,6.4-14.5,13.3-29.9,26.8-47.1,12.6-16.2,25.6-27.1,32.3-32.3,4.8-3.7,9-6.7,12.2-8.8-3.8,1.1-9,2.7-15.1,5,0,0-20.3,7.8-39.3,21-28.1,19.4-50,45.7-66.9,77.1-22.7,42.2-28.8,87.4-23.6,134.5,4.5,40.3,16.8,77.7,40.5,110.8,14.2,19.9,28.8,32.6,33.9,36.9,25.3,21.4,50.6,31.9,66.8,37.2Z"/>
</svg>
