<?xml version="1.0" encoding="utf-8"?>
<!-- Generator: Adobe Illustrator 28.3.0, SVG Export Plug-In . SVG Version: 6.00 Build 0)  -->
<svg version="1.1" id="Layer_1" xmlns="http://www.w3.org/2000/svg" xmlns:xlink="http://www.w3.org/1999/xlink" x="0px" y="0px"
	 viewBox="0 0 841.9 841.9" style="enable-background:new 0 0 841.9 841.9;" xml:space="preserve">
<style type="text/css">
	.st0{fill:#C6633D;}
	.st1{fill:#FFFFFF;}
</style>
<rect x="0" y="0" class="st0" width="842" height="842"/>
<path class="st1" d="M489.1,632.1c10.3-9.8,21.7-19.2,31.4-30.1c27.4-30.6,43.7-67.1,52.8-106.8c10.4-45.8,11.9-91,3.1-135.3
	c-5.3-26.3-13.4-47.7-19.7-62.1c-6.4-14.5-13.3-29.9-26.8-47.1c-12.6-16.2-25.6-27.1-32.3-32.3c-4.8-3.7-9-6.7-12.2-8.8
	c3.8,1.1,9,2.7,15.1,5c0,0,20.3,7.8,39.3,21c28.1,19.4,50,45.7,66.9,77.1c22.7,42.2,28.8,87.4,23.6,134.5
	c-4.5,40.3-16.8,77.7-40.5,110.8c-14.2,19.9-28.8,32.6-33.9,36.9C530.6,616.2,505.3,626.7,489.1,632.1z"/>
<path class="st1" d="M352.8,633c-10.3-9.8-21.7-19.2-31.4-30.1c-27.4-30.6-43.7-67.1-52.8-106.8c-10.4-45.8-11.9-91-3.1-135.3
	c5.3-26.3,13.4-47.7,19.7-62.1c6.4-14.5,13.3-29.9,26.8-47.1c12.6-16.2,25.6-27.1,32.3-32.3c4.8-3.7,9-6.7,12.2-8.8
	c-3.8,1.1-9,2.7-15.1,5c0,0-20.3,7.8-39.3,21c-28.1,19.4-50,45.7-66.9,77.1c-22.7,42.2-28.8,87.4-23.6,134.5
	c4.5,40.3,16.8,77.7,40.5,110.8c14.2,19.9,28.8,32.6,33.9,36.9C311.3,617.2,336.6,627.7,352.8,633z"/>
</svg>
