<?xml version="1.0" encoding="utf-8"?>
<!-- Generator: Adobe Illustrator 28.3.0, SVG Export Plug-In . SVG Version: 6.00 Build 0)  -->
<svg version="1.1" id="Layer_1" xmlns="http://www.w3.org/2000/svg" xmlns:xlink="http://www.w3.org/1999/xlink" x="0px" y="0px"
	 viewBox="0 0 834 1080" style="enable-background:new 0 0 834 1080;" xml:space="preserve">
<style type="text/css">
	.st0{fill:url(#SVGID_1_);}
	.st1{fill:url(#SVGID_00000123436610548991955130000007997636575853340607_);}
	.st2{fill:url(#SVGID_00000072983769370916228770000005114420947959066522_);}
	.st3{fill:url(#SVGID_00000166655129744049690550000006138509481644919736_);}
	.st4{fill:url(#SVGID_00000029010502725801923630000014396761156019577997_);}
	.st5{fill:url(#SVGID_00000031205113120899019710000005130883368062483386_);}
	.st6{fill:url(#SVGID_00000098941052500017345610000009196195371945900172_);}
</style>
<linearGradient id="SVGID_1_" gradientUnits="userSpaceOnUse" x1="580.2324" y1="248.7676" x2="580.2324" y2="798.6348">
	<stop  offset="0" style="stop-color:#FF3939"/>
	<stop  offset="0.217" style="stop-color:#FF4237"/>
	<stop  offset="0.5776" style="stop-color:#FF5C30"/>
	<stop  offset="0.9944" style="stop-color:#FF8127"/>
</linearGradient>
<path class="st0" d="M347.99,565.77c0.2-52.93,8.5-100.27,36.06-142.41c14.74-22.53,32.67-42.02,58.8-51.77
	c31.24-11.65,51.52,1.87,53.79,35.12c2.48,36.4-10.12,68.81-25.2,100.8c-12.96,27.51-26.97,54.68-37.56,83.11
	c-12.97,34.82-13.19,70.14,6.86,103.38c8.87,14.71,21.04,25.75,37.42,31.55c17.71,6.27,28.44-0.73,29.89-19.45
	c1.77-22.82-5.07-44.18-11.98-65.39c-10.66-32.72-18.04-65.76-9.76-100.15c12.22-50.77,39.53-88.76,92.88-101.24
	c36.32-8.5,68.33,4.24,97.47,25.66c5.38,3.95,10.79,8.27,16.87,10.76c12.97,5.32,24.29-1.36,26.79-15.17
	c3.11-17.2-2.83-31.6-15.33-43.05c-8.33-7.63-17.86-13.93-26.62-21.11c-27.54-22.56-45.26-50.17-40.79-87.3
	c3.25-27.03,19.95-44.71,44.33-55.27c22.89-9.92,43.54-4.66,62.45,10.44c22,17.57,35.88,40.83,46.1,66.45
	c16.75,42,24.9,85.47,21.09,130.86c-5.3,63.16-54.58,92.64-112.64,67.12c-14.25-6.26-28.34-12.93-42.28-19.86
	c-47.2-23.44-90.74,5.13-108.36,38.24c-15.79,29.68-16.02,59.18,5.39,86.7c13.7,17.6,29.11,33.95,41.83,52.2
	c9.38,13.45,17.68,28.4,22.85,43.89c7.23,21.67-0.03,38.28-19.89,49.61c-32.69,18.64-68.25,22.78-104.88,16.25
	c-57.38-10.23-96.04-44.28-119.09-96.81C355.38,655.43,348.67,609.38,347.99,565.77z"/>
<linearGradient id="SVGID_00000096041810744277986420000000436673827009601434_" gradientUnits="userSpaceOnUse" x1="236.0723" y1="35.2417" x2="236.0723" y2="564.209">
	<stop  offset="0" style="stop-color:#FF3939"/>
	<stop  offset="0.217" style="stop-color:#FF4237"/>
	<stop  offset="0.5776" style="stop-color:#FF5C30"/>
	<stop  offset="0.9944" style="stop-color:#FF8127"/>
</linearGradient>
<path style="fill:url(#SVGID_00000096041810744277986420000000436673827009601434_);" d="M281.14,54.34
	c27.8,14.41,36.62,30.6,40.69,38.89c9.47,19.26,5.49,39.92-10.54,54.07c-13.94,12.32-30.72,18.59-48.74,22.06
	c-34.51,6.66-68.21,1.31-102.15-5.34c-21.38-4.19-43.4-6.83-65.15-6.95c-28.62-0.15-40.72,22.64-26.23,47.64
	c12.77,22.05,33.62,32.36,58.16,29.12c20.4-2.69,40.69-8.98,60.03-16.32c65.29-24.78,131.1-28.61,197.42-6.13
	c31.86,10.8,56.7,30.45,65.89,65.05c8.07,30.39-6.76,66.88-33.74,83.04c-22.13,13.25-48.81,9.61-70.34-10.04
	c-14.65-13.37-28.43-27.73-43.49-40.61c-18.72-16-39.56-28.69-64.22-33.55c-59.88-11.79-98.89,25.26-87.58,85.32
	c4.4,23.37,15.29,45.45,22.17,68.43c5.75,19.21,12.84,38.66,14.26,58.37c2.7,37.47-22.14,66.99-58.75,74.81
	c-37.36,7.97-69.59-8.41-84.85-43.44c-15.57-35.73-10.71-70.92,5.3-104.76c8.73-18.46,20.56-35.43,30.76-53.21
	c7.03-12.26,14.49-24.39,20.29-37.23c10.21-22.62,6.41-43.91-10.44-61.92c-8.38-8.96-17.72-17.83-28.28-23.82
	C9.63,208.35,8.8,137.11,42.09,96.83c25.84-31.27,57.8-44.88,94.75-54.71C142.5,40.61,217.9,21.54,281.14,54.34z"/>
<linearGradient id="SVGID_00000181772825287599587520000003063651726354966697_" gradientUnits="userSpaceOnUse" x1="239.3763" y1="718.5397" x2="239.3763" y2="1047.9523">
	<stop  offset="0" style="stop-color:#FF3939"/>
	<stop  offset="0.217" style="stop-color:#FF4237"/>
	<stop  offset="0.5776" style="stop-color:#FF5C30"/>
	<stop  offset="0.9944" style="stop-color:#FF8127"/>
</linearGradient>
<path style="fill:url(#SVGID_00000181772825287599587520000003063651726354966697_);" d="M241.43,1047.91
	c-50.24,0.81-97.01-10.82-138.35-40.15c-36.55-25.93-58.78-61.05-62.67-106.22c-2.66-30.86,5.57-59.32,25.4-83.3
	c55-66.53,125.86-100.61,212.34-99.68c33.86,0.36,64.45,12.55,90.5,34.7c35.01,29.76,37.72,74.52,5.86,107.58
	c-8.24,8.55-17.11,15.78-26.52,21.8c-7.54,4.83-37.59,22.62-82.2,24.28c-19.23,0.72-43.55,1.62-63.25-12.87
	c-4.79-3.52-14.27-10.76-18.39-23.52c-2.01-6.21-2.5-13.04-1.26-20.48c2.87-17.27,16.25-25.18,31.47-29.56
	c12.89-3.71,26.41-5.2,39.31-8.89c7.66-2.19,15.42-5.71,21.79-10.44c16.59-12.29,14.11-31.99-4.7-40.42
	c-19.94-8.93-40.07-6.72-60.09-0.05c-47.13,15.72-81.23,60.35-81.87,107.1c-0.79,56.96,46.2,97.52,102.01,85.54
	c27.11-5.82,53.37-16.18,79.45-25.97c28.8-10.81,57.56-19.72,88.88-15.5c34.3,4.62,48.1,28.43,34.56,60.41
	c-8.34,19.69-24.15,31.9-42.6,41.19C345.24,1036.53,295.78,1047.87,241.43,1047.91z"/>
<linearGradient id="SVGID_00000008870841704155111370000016356092572952847257_" gradientUnits="userSpaceOnUse" x1="625.9937" y1="535.7449" x2="625.9937" y2="1037.0701">
	<stop  offset="0" style="stop-color:#FF3939"/>
	<stop  offset="0.217" style="stop-color:#FF4237"/>
	<stop  offset="0.5776" style="stop-color:#FF5C30"/>
	<stop  offset="0.9944" style="stop-color:#FF8127"/>
</linearGradient>
<path style="fill:url(#SVGID_00000008870841704155111370000016356092572952847257_);" d="M796.45,813.74
	c-1.85,64.29-21.51,126.28-73.22,174.99c-51.89,48.88-139.4,62.86-198.84,31.92c-17.56-9.14-31.61-21.92-34.19-43.07
	c-2.7-22.13,5.66-37.42,27.27-42.91c25.25-6.42,51.24-10.32,77.11-13.85c34.34-4.69,69.54-5.61,101.63-20.14
	c8.57-3.88,26.8-9.22,38.34-25.77c3.13-4.49,11.2-16.06,7.55-28.13c-0.36-1.2-3.49-10.99-12.21-14.09
	c-3.34-1.19-7.17-1.29-11.35-0.07c-8.94,2.6-17.74,7.06-25.39,12.43c-36.89,25.89-75.98,46.76-120.89,54.66
	c-28.35,4.99-56.49,3.97-83.72-6.2c-12.52-4.68-23.32-11.96-29.32-24.69c-9.37-19.9-0.27-40.96,21.34-43.79
	c16.54-2.17,33.86-0.88,50.55,1.18c48.55,6,96.28,5.46,141.73-15.06c10.11-4.57,19.85-11.28,27.84-18.99
	c22.9-22.09,24.85-50.56,3.03-73.7c-14.11-14.97-32.01-26.45-48.61-38.96c-16.37-12.34-34.02-23.08-49.66-36.23
	c-14.71-12.38-22.84-29.32-25.9-48.65c-6.43-40.52,26.24-63.82,62.09-57.97c24.64,4.02,44.61,17.33,62.39,34.21
	c31.04,29.48,50.16,66.51,65.83,105.51C786.91,718.81,795.86,763.02,796.45,813.74z"/>
<linearGradient id="SVGID_00000008106496912437552030000018117447138763144329_" gradientUnits="userSpaceOnUse" x1="577.4777" y1="33" x2="577.4777" y2="419.2449">
	<stop  offset="0" style="stop-color:#FF3939"/>
	<stop  offset="0.217" style="stop-color:#FF4237"/>
	<stop  offset="0.5776" style="stop-color:#FF5C30"/>
	<stop  offset="0.9944" style="stop-color:#FF8127"/>
</linearGradient>
<path style="fill:url(#SVGID_00000008106496912437552030000018117447138763144329_);" d="M435.29,39.45
	c29.19,1.16,56.23,10.46,82.73,20.04c51.66,18.68,101.29,14.42,150.78-7.4c15.76-6.95,32.41-12.29,49.11-16.58
	c25.81-6.62,48.78-0.28,66.04,20.6c17.73,21.45,21.28,45.86,10.66,71.68c-14.5,35.28-42.22,58.29-74.74,75.29
	c-17.69,9.25-37.34,14.94-56.41,21.36c-17.07,5.75-30.58,14.47-40.79,25.83c-3.74,4.16-21.99,23.97-22.89,51.71
	c-0.99,30.58,20.02,40.77,16.26,75.4c-1.47,13.53-5.55,20.02-7.27,22.49c-10.44,14.99-30.36,20.98-45.62,19.02
	c-29.65-3.82-47.57-23.57-60.57-48.31c-38.59-73.42,2.53-162.41,85.12-184.32c23.22-6.16,46.97-10.39,70.02-17.08
	c10.27-2.98,20.46-8.58,28.74-15.36c6.71-5.5,11.63-14.05,15.3-22.17c3.76-8.32,1.61-18.16-5.98-22.92
	c-5.78-3.62-15.53-5.84-21.43-3.47c-24.58,9.87-48.39,21.65-72.44,32.84c-36.22,16.85-71.72,35.64-111.7,42.57
	c-29.1,5.04-57.9,4.87-85.49-7.31c-27.67-12.22-44.2-33.54-49.51-63.26c-4.96-27.79,12.65-54.61,42.72-63.74
	C409.97,42.7,422.81,41.67,435.29,39.45z"/>
<linearGradient id="SVGID_00000004514267965500890150000007064234798112736146_" gradientUnits="userSpaceOnUse" x1="179.3313" y1="326.7734" x2="179.3313" y2="759.0594">
	<stop  offset="0" style="stop-color:#FF3939"/>
	<stop  offset="0.217" style="stop-color:#FF4237"/>
	<stop  offset="0.5776" style="stop-color:#FF5C30"/>
	<stop  offset="0.9944" style="stop-color:#FF8127"/>
</linearGradient>
<path style="fill:url(#SVGID_00000004514267965500890150000007064234798112736146_);" d="M328.3,436.67
	c-0.48,41.22-15.73,75.85-46.68,103.18c-12.47,11.01-25.1,22-38.66,31.58c-39.4,27.83-67.98,63.44-84.02,109.3
	c-7.38,21.09-17.77,40.94-33.82,57.16c-14.42,14.57-31.45,22.68-52.41,20.94c-31.34-2.61-48.46-27.1-40.33-57.65
	c9.59-36.06,34.05-61.14,63.4-81.14c25.36-17.28,53.07-31.09,79.36-47.06c14.76-8.96,29.72-18.04,42.85-29.13
	c19.55-16.53,22.85-38.76,14.47-62.02c-5.37-14.9-13.41-28.83-20.2-43.23c-4.53-9.6-9.5-19.03-13.33-28.91
	c-11.48-29.53-1.76-60.7,23.06-75.51c24.03-14.33,57.47-7.29,77.6,16.34C316.26,370.12,328.15,405.78,328.3,436.67z"/>
<linearGradient id="SVGID_00000029035350439513314520000016936592842657827732_" gradientUnits="userSpaceOnUse" x1="274.4994" y1="597.2944" x2="274.4994" y2="692.1414">
	<stop  offset="0" style="stop-color:#FF3939"/>
	<stop  offset="0.217" style="stop-color:#FF4237"/>
	<stop  offset="0.5776" style="stop-color:#FF5C30"/>
	<stop  offset="0.9944" style="stop-color:#FF8127"/>
</linearGradient>
<path style="fill:url(#SVGID_00000029035350439513314520000016936592842657827732_);" d="M217.62,651.18
	c0.22-26.58,21.89-49.27,49.93-53.3c27.16-3.9,54.62,11.97,61.99,35.82c5.6,18.14-1.4,37.55-18.83,47.62
	c-23.31,13.47-47.95,14.27-72.3,2.91C224.48,677.73,216.83,666.22,217.62,651.18z"/>
</svg>
