<?xml version="1.0" encoding="utf-8"?>
<!-- Generator: Adobe Illustrator 28.3.0, SVG Export Plug-In . SVG Version: 6.00 Build 0)  -->
<svg version="1.1" id="Layer_1" xmlns="http://www.w3.org/2000/svg" xmlns:xlink="http://www.w3.org/1999/xlink" x="0px" y="0px"
	 viewBox="0 0 595.3 595.3" style="enable-background:new 0 0 595.3 595.3;" xml:space="preserve">
<style type="text/css">
	.st0{fill:#8D8D8E;}
	.st1{fill:#FFFFFF;}
</style>
<rect x="-0.5" y="-0.5" class="st0" width="596" height="596"/>
<g>
	<path class="st1" d="M248.6,348.1v-6.4c0-17.6,1.5-31.6,4.4-42.1c2.9-10.5,7.3-18.9,13-25.2c5.7-6.4,12.6-12.2,20.8-17.5
		c6.5-4.1,12.3-8.4,17.5-12.7c5.1-4.3,9.2-8.9,12.2-13.9c3-5,4.5-10.6,4.5-16.9c0-6.1-1.5-11.5-4.3-16.1c-2.9-4.7-6.9-8.3-11.9-10.8
		c-5-2.5-10.6-3.8-16.7-3.8c-6.1,0-11.8,1.4-17.2,4.2c-5.3,2.8-9.7,6.8-13,11.9c-3.4,5.1-5.1,11.3-5.2,18.6h-71.4
		c0.3-21.7,5.4-39.5,15.1-53.4c9.8-13.9,22.7-24.1,38.9-30.8c16.1-6.7,33.9-10,53.4-10c21.3,0,40.3,3.3,56.9,9.9
		c16.6,6.6,29.7,16.4,39.2,29.3c9.5,12.9,14.3,28.8,14.3,47.5c0,12.3-2.1,23.2-6.2,32.6c-4.1,9.4-9.9,17.7-17.3,24.9
		c-7.4,7.2-16.1,13.7-26,19.6c-7.8,4.6-14.2,9.3-19.3,14.3c-5.1,5-9,10.6-11.6,17c-2.6,6.4-3.9,14.2-3.9,23.4v6.4H248.6z M282.9,450
		c-11.2,0-20.7-3.9-28.6-11.8s-11.8-17.4-11.7-28.6c-0.1-11,3.8-20.4,11.7-28.2c7.9-7.8,17.5-11.7,28.6-11.7
		c10.7,0,20,3.9,28.1,11.7c8.1,7.8,12.2,17.2,12.3,28.2c-0.1,7.5-2,14.2-5.8,20.3c-3.8,6.1-8.7,11-14.7,14.6
		C296.6,448.1,290,450,282.9,450z"/>
</g>
</svg>
