<?xml version="1.0" encoding="utf-8"?>
<!-- Generator: Adobe Illustrator 28.3.0, SVG Export Plug-In . SVG Version: 6.00 Build 0)  -->
<svg version="1.1" id="Layer_1" xmlns="http://www.w3.org/2000/svg" xmlns:xlink="http://www.w3.org/1999/xlink" x="0px" y="0px"
	 viewBox="0 0 841.9 841.9" style="enable-background:new 0 0 841.9 841.9;" xml:space="preserve">
<style type="text/css">
	.st0{fill:#1DCCBF;}
	.st1{fill:#FFFFFF;}
</style>
<rect x="0" y="0" class="st0" width="842" height="842"/>
<g>
	<g>
		<path class="st1" d="M613,560.5c0,18.5,0,35.7,0,54.8c-44.3,1.3-81.6-13.8-114.8-40.6c-40.4-32.7-66.9-76.2-93-120
			c-16.8-28.2-32.3-57.2-50.4-84.5c-29.9-45.2-64.8-84.4-125.6-87c0-19.1,0-36.8,0-57.1c93.6,1,145.1,62.7,191.9,134.4
			C467.9,288.9,519,227.5,612.9,226c0,19.4,0,37.2,0,56.2C529.7,290.6,491.6,359.9,454,421c-2.4,3.9-1.6,3.2,1,7
			c18.9,27.6,39.9,60.5,61.5,85.8C540.6,542.2,561.4,550.2,613,560.5z"/>
		<path class="st1" d="M228.7,618c0.1-19.4,0.2-38.8,0.3-58.2c68.5-3.1,106.8-49.7,143.2-105.7c7.9,23.4,14.9,43.1,21,63.1
			c0.5,1.8-0.8,5.7-3.3,10.8c-17,34.8-59.2,59-59.2,59C292.5,609,254.4,615.8,228.7,618z"/>
	</g>
</g>
</svg>
