<?xml version="1.0" encoding="UTF-8"?>
<svg id="Layer_1" data-name="Layer 1" xmlns="http://www.w3.org/2000/svg" version="1.1" viewBox="0 0 841.9 841.9">
  <defs>
    <style>
      .cls-9 {
        fill: #fff;
        stroke-width: 0px;
      }
    </style>
  </defs>
  <path class="cls-9" d="M613,560.5v54.8c-44.3,1.3-81.6-13.8-114.8-40.6-40.4-32.7-66.9-76.2-93-120-16.8-28.2-32.3-57.2-50.4-84.5-29.9-45.2-64.8-84.4-125.6-87v-57.1c93.6,1,145.1,62.7,191.9,134.4,46.8-71.6,97.9-133,191.8-134.5v56.2c-83.2,8.4-121.3,77.7-158.9,138.8-2.4,3.9-1.6,3.2,1,7,18.9,27.6,39.9,60.5,61.5,85.8,24.1,28.4,44.9,36.4,96.5,46.7Z"/>
  <path class="cls-9" d="M228.7,618c.1-19.4.2-38.8.3-58.2,68.5-3.1,106.8-49.7,143.2-105.7,7.9,23.4,14.9,43.1,21,63.1.5,1.8-.8,5.7-3.3,10.8-17,34.8-59.2,59-59.2,59-38.2,22-76.3,28.8-102,31Z"/>
</svg>
